<?xml version="1.0" encoding="utf-8"?>
<svg xmlns="http://www.w3.org/2000/svg" viewBox="67.3795 180.1107 323.2633 84.974" width="323.263px" height="84.974px" preserveAspectRatio="none"><path style="fill: rgb(216, 216, 216); stroke: rgb(0, 0, 0);" d="M 387.198 216.187 C 388.678 214.712 390.11 221.164 390.403 222.778 C 390.406 222.794 390.542 225.042 390.542 225.042 C 390.542 225.042 389.876 222.586 390.126 222.085 C 390.194 221.95 390.207 222.86 390.218 222.871 C 390.764 223.415 390.311 221.331 390.311 220.561 C 390.311 219.018 390.483 217.501 390.622 215.962 C 390.968 212.137 386.904 205.122 383.995 203.518 C 370.482 196.066 356.772 193.55 342.185 190.094 C 331.196 187.491 320.809 183.522 309.51 181.916 C 295.034 179.858 280.671 180.643 266.149 180.291 C 247.824 179.846 229.55 180.273 211.117 181.043 C 206.277 181.245 201.324 180.62 196.519 181.223 C 187.978 182.295 179.8 185.176 171.226 186.272 C 162.314 187.411 153.165 184.577 144.364 186.227 C 137.825 187.452 132.685 191.267 126.757 193.934 C 122.265 195.954 117.25 197.664 113.17 200.384 C 110.393 202.235 108.339 204.966 107.026 207.591 C 106.865 207.913 105.749 209.316 105.224 208.792 C 103.827 207.394 107.458 207.907 105.561 207.907 C 100.46 206.069 96.482 208.063 91.883 210.272 C 77.961 216.961 67.971 227.593 67.393 243.917 C 67.186 249.758 69.325 262.277 75.861 264.813 C 80.5 266.614 84.627 258.982 86.152 256.008 C 92.097 244.411 95.608 231.677 99.569 219.341 C 100.405 216.737 105.66 207.185 104.128 204.096 C 103.525 202.878 101.97 205.888 101.393 207.118 C 99.909 210.279 99.322 213.562 98.787 216.975 C 97.318 226.363 95.401 235.824 95.401 245.363 C 95.401 248.23 95.624 250.828 96.182 253.642 C 96.321 254.342 95.86 255.745 96.573 255.745 C 97.835 255.745 98.646 248.177 98.787 247.465 C 99.833 242.192 101.598 237.901 104.519 233.403 C 105.696 231.59 107.841 228.524 110.511 229.197 C 115.404 230.431 111.527 241.999 110.902 244.837 C 110.681 245.843 110.499 246.859 110.251 247.86 C 110.077 248.561 109.085 250.288 109.73 249.962 C 110.987 249.328 111.029 244.668 111.163 243.654 C 111.684 239.71 113.199 236.673 115.592 233.534 C 117.144 231.499 118.511 229.184 120.803 227.883 C 120.821 227.873 122.795 226.778 122.887 226.963 C 125.318 231.87 119.5 241.249 118.327 246.151 C 118.052 247.304 117.023 251.54 119.5 251.54 C 122.444 251.54 122.869 247.298 123.408 245.231 C 125.257 238.141 128.511 231.466 135.392 228.146 C 136.856 227.44 139.545 226.101 141.254 226.963 C 141.522 227.098 143.92 229.627 143.729 229.723 C 142.893 230.145 140.071 228.537 139.3 228.277 C 135.796 227.099 132.905 230.155 131.354 233.009 C 128.827 237.658 126.417 244.623 126.795 249.962 C 126.965 252.363 127.774 256.273 130.963 256.139 C 134.983 255.97 136.413 251.951 137.867 248.911 C 143.148 237.875 146.102 225.855 148.158 213.821 C 148.653 210.924 151.706 201.923 150.112 198.707 C 149.503 197.477 148.839 201.176 148.549 202.518 C 147.704 206.441 147.435 210.386 146.856 214.347 C 145.513 223.528 143.539 232.51 143.078 241.814 C 143.066 242.062 143.208 250.62 143.208 250.62 C 143.208 250.62 146.59 244.937 146.726 244.705 C 149.927 239.256 152.738 233.421 156.626 228.409 C 156.836 228.138 160.143 223.021 160.143 223.021 C 160.143 223.021 160.779 225.702 160.794 225.78 C 161.392 228.795 161.148 231.81 160.925 234.849 C 160.432 241.559 154.006 239.816 157.017 248.254 C 157.521 249.668 157.74 249.976 158.45 251.277 C 159.428 253.071 160.33 254.635 162.358 255.351 C 171.425 258.553 179.025 243.473 181.116 236.951 C 181.943 234.372 184.235 229.062 180.986 227.095 C 176.929 224.639 171.065 230.765 168.741 233.272 C 161.101 241.511 160.666 254.578 173.039 258.899 C 178.517 260.812 183.588 256.803 185.936 252.065 C 190.062 243.74 191.928 234.928 191.928 225.649 C 191.928 225.165 191.866 226.616 191.798 227.095 C 191.686 227.886 191.544 228.673 191.407 229.46 C 190.838 232.739 190.95 232.054 190.235 235.374 C 189.338 239.534 184.906 250.443 189.974 253.511 C 191.8 254.616 193.367 252.464 194.143 251.145 C 196.903 246.455 197.439 241.155 198.962 236.032 C 199.172 235.327 199.991 233.037 200.395 232.22 C 200.601 231.805 200.981 230.839 201.307 231.169 C 202.604 232.477 201.277 234.861 201.047 236.689 C 200.41 241.737 199.729 246.846 199.483 251.934 C 199.432 252.989 198.911 256.235 200.656 256.402 C 203.349 256.661 205.745 254.358 207.299 252.459 C 211.791 246.974 214.813 237.643 216.288 230.775 C 216.801 228.386 218.336 222.04 215.637 219.998 C 213.432 218.33 207.59 224.168 211.729 225.386 C 224.676 229.196 245.384 223.226 248.724 208.827 C 250.024 203.222 250.494 197.485 251.851 191.873 C 252.845 187.761 252.129 190.982 253.153 187.142 C 253.364 186.352 254.061 184 253.805 184.776 C 252.632 188.325 252.272 192.221 251.069 195.816 C 246.902 208.272 240.419 219.869 236.349 232.352 C 235.05 236.334 234.252 240.502 232.832 244.443 C 232.47 245.445 232.855 247.465 231.79 247.465 C 230.904 247.465 231.399 245.723 231.399 244.837 C 231.399 242.268 232.065 239.907 232.832 237.477 C 235.431 229.235 238.884 221.694 244.947 215.398 C 245.525 214.797 251.585 208.428 252.632 209.484 C 253.282 210.139 249.185 215.846 248.855 216.318 C 245.455 221.166 241.007 225.138 236.74 229.197 C 236.152 229.756 231.529 233.101 231.529 234.192 C 231.529 234.487 233.935 234.657 234.265 234.717 C 236.853 235.192 239.364 235.297 241.95 235.637 C 251.445 236.887 272.571 243.547 274.647 229.723 C 274.799 228.716 276.182 221.94 275.299 221.049 C 274.079 219.818 269.883 223.929 269.437 224.335 C 265.945 227.505 255.179 242.106 266.831 243.786 C 274.779 244.931 284.938 231.129 284.938 223.941 C 284.938 221.258 280.437 219.82 278.295 219.604 C 277.501 219.523 276.731 219.614 275.95 219.735 C 275.407 219.819 273.837 220.261 274.387 220.261 C 281.064 220.261 287.83 216.829 293.536 213.689 C 293.648 213.628 301.065 209.274 301.091 209.352 C 301.269 209.889 300.065 213.82 300.049 214.347 C 299.918 218.721 301.096 222.714 302.394 226.832 C 302.404 226.864 303.436 230.249 303.436 230.249 C 303.436 230.249 306.689 226.934 302.264 226.438 C 301.616 226.365 300.955 226.351 300.31 226.438 C 295.808 227.043 292.539 230.132 289.628 233.272 C 288.033 234.992 285.001 237.042 285.98 239.843 C 287.332 243.707 294.736 247.713 298.356 249.174 C 310.143 253.931 324.2 241.389 328.838 231.563 C 331.488 225.949 332.655 217.235 326.754 212.77 C 323.895 210.606 321.123 215.782 320.11 217.501 C 316.895 222.956 312.806 237.44 323.237 238.397 C 334.056 239.389 339.42 225.469 341.995 217.369 C 342.076 217.113 345.512 208.038 345.512 208.038 C 345.512 208.038 346.261 216.206 346.294 216.712 C 346.73 223.462 346.196 230.228 345.512 236.951 C 345.508 236.988 345.121 243.786 345.121 243.786 C 345.121 243.786 346.37 238.101 346.424 237.871 C 348.045 231.057 351.711 225.137 353.589 218.421 C 354.007 216.927 354.495 215.452 354.891 213.952 C 355.217 212.72 355.586 209.046 355.934 210.272 C 356.611 212.664 355.959 215.901 355.803 218.289 C 355.709 219.735 355.603 221.179 355.543 222.626 C 355.26 229.376 356.18 253.82 368.96 244.443 C 371.833 242.335 372.397 241.266 374.692 238.397 C 376.376 236.291 379.327 232.632 380.814 230.38 C 383.839 225.803 385.394 221.24 387.198 216.187" id="object-0"/></svg>