<svg xmlns="http://www.w3.org/2000/svg" version="1.1" viewBox="-5.0 -10.0 110.0 135.0">
 <path d="m97.098 38.645c-1.3711-2.25-2.9375-3.5781-5.5859-4.7305-2.5781-1.1211-6.3125-2.125-13.309-3.5781 0.16406-1.7305 0.097656-5.8438-0.29297-9.5039-0.64844-6.0391-1.7773-7.8906-2.6094-8.375-0.44922-0.26172-0.94531-0.21484-1.4727 0.14062-0.94922-1.9453-5.0078-3.5352-11.742-4.5938-8.7109-1.3672-20.855-1.6523-31.695-0.75-5.5938 0.46484-10.605 1.2383-14.492 2.2344-4.3242 1.1094-7.2695 2.4727-8.7539 4.0547-0.75391 0.35547-4.7852 3.9258-5.5469 7.6641-0.34766 1.7148 0.042969 3.2109 1.168 4.4531-0.71875 2.5547-0.85547 39.438 0.19141 44.152l0.007813 0.074219c0.09375 0.80469 0.32031 2.6875 1.1289 5.0703 0.085938 0.24609 0.19531 0.48047 0.28516 0.72656 0.003906 0.003906 0.003906 0.011718 0.007813 0.015625 0.82422 2.1914 1.957 4.2227 3.375 6.0586 0.007812 0.011719 0.015625 0.019532 0.023437 0.03125 0.30859 0.39453 0.60547 0.79688 0.9375 1.1758 2.7656 3.1367 6.4141 5.5938 10.852 7.3086 5.125 1.9805 11.348 2.9805 18.512 2.9805 0.42187 0 0.84375-0.003906 1.2734-0.011718 8.5508-0.14063 15.832-1.3516 21.641-3.6055 4.5625-1.7695 8.1953-4.1641 10.809-7.1211 3.4883-3.9492 3.9688-7.5977 3.9258-8.25 2.1953 0.21484 4.1523 0.46094 5.8828 0.67969 4.6133 0.58594 7.6602 0.97266 9.8906 0.046876 1.4375-0.59766 2.5938-1.9023 3.5312-3.9883 0.94922-2.1055 1.625-4.8828 2.1562-7.3203 0.49219-2.2578 1.1133-7.4609 1.2852-12.652 0.26562-7.9375-0.60156-11.121-1.3789-12.395zm-87.059 43.582c-2.0742-2.2734-3.707-4.8789-4.8555-7.7422-0.59766-1.4922-1.0352-2.9883-1.3008-4.4492-0.007812-0.042968-0.015624-0.078125-0.019531-0.10156-0.53125-2.7422-0.76562-19.535-0.80859-25.773-0.054688-7.5312 0.058593-16.285 0.4375-17.832 6.9375 4.5273 14.98 7.6602 23.906 9.3086 6.1758 1.1406 11.16 1.25 13.523 1.25 0.33984 0 0.625-0.003907 0.85156-0.003907h0.11328c0.32422-0.003906 0.69141-0.003906 1.1172-0.003906 1.0586 0 2.3828 0.003906 3.9297-0.039062 8.4375 3.0547 12.93-0.42969 15.812-1.9805 0.38672-0.20703 0.72266-0.39062 1.0117-0.53125 6.1953-1.9023 10.289-6.2539 11.203-7.9492 0.92969-1.7227 1.3398-3.7109 1.2148-5.9141-0.12109-2.1523-0.75391-4.5078-1.875-7 0.19922-0.22656 0.40234-0.29688 0.59766-0.21484 0.76953 0.33203 1.5078 3.0078 2.0312 7.332 0.44531 3.6719 0.61719 7.7891 0.41016 9.8086-1.9492 0.13672-5.8086 2.3711-6.7891 3.9414-1.0352 1.6562-0.96875 4.1133 0.14844 5.2539 0.48047 0.49219 2.6445 0.82031 4.5547 1.1133 0.60156 0.089843 1.1719 0.17969 1.6641 0.26562-0.23047 2.2891-0.22266 6.1484-0.21094 9.8828v0.011719c0.011719 4.8672 0.027344 10.387-0.60156 10.527-0.074219 0.019531-0.17188 0.035156-0.28516 0.058593l-0.078124 0.015626c-0.96484 0.1875-2.1602 0.55469-2.8203 1.7617-0.27734 0.50781-1.3477 4.1953-1.3672 7.0898-0.007813 1.1367 0.089843 2.7383 0.97266 3.5039 0.45312 0.39062 1.0742 0.53516 1.8516 0.41797 0.10547 0.1875 0.14453 0.43359 0.12891 0.75781-0.023437 0.47266-0.37891 4.7422-5.6055 8.9609-2.707 2.1836-6.2539 3.9648-10.547 5.293-5.2305 1.6172-11.609 2.5703-18.961 2.8281-0.78516 0.027343-1.5625 0.042969-2.3281 0.042969-6.2109 0-11.711-0.91797-16.379-2.7344-4.25-1.6562-7.832-4.0625-10.652-7.1602zm-4.3242-64.641c0.14453 0.21094 0.41016 0.30469 0.76953 0.25781 0.78125-0.09375 1.9609-0.85156 2.4219-1.6641-0.17188 0.58594-0.38281 0.82812-0.57422 1.0469l-0.042969 0.046876c-0.29687 0.34375-0.68359 0.73828-1.0898 1.1562-1.5273 1.5664-3.6172 3.707-4.1602 6.2539-0.97266-1.3516-1.0781-2.8438-0.32422-4.5625 0.66797-1.5195 1.9141-3.0117 3.0195-4.332 0.16016-0.19141 0.3125-0.375 0.46484-0.55469-0.58594 1.1445-0.75391 1.957-0.48438 2.3555zm54.559 17.727c-3.5469 1.7891-6.6953 2.7344-10.938 1.3867 3.5547-0.16406 8.207-0.65234 10.938-1.3867zm-33.895-12.445c0.10156-0.039063 0.17578-0.12109 0.23047-0.25391 0.14453-0.39844-0.8125-1.1172-1.6562-1.7539-0.37891-0.28516-0.76953-0.57812-0.92969-0.75781-0.078126-0.058593-0.17969-0.13281-0.29688-0.21875-0.89062-0.64453-2.7422-1.9883-2.7031-3.2031 0.015624-0.44531 0.28516-0.83984 0.8125-1.1758 0.4375-0.27734 0.99609-0.34375 1.6562-0.1875 2.7891 0.64453 7.2773 5.2227 10.922 11.137-6.9805 0.55859-15.461 0.089844-17.621-2.2617-0.40234-0.4375-0.5625-0.92578-0.47656-1.4531 0.10547-0.64844 0.42969-1.125 0.96484-1.418 0.44531-0.24609 1.0469-0.37109 1.7812-0.37109 2.2422 0 5.1602 1.1328 6.3125 1.6211 0.09375 0.023438 0.20703 0.078126 0.32422 0.13672 0.23438 0.11719 0.47656 0.23438 0.67578 0.16016zm6.5469 12.605c-3.5039-0.23828-7.9023-1.125-11.848-2.3906 0.26172 0.027344 0.52344 0.058594 0.78906 0.089844 3.6328 0.40234 7.7422 0.85938 11.055 2.3008zm41.254-9.8398c-1.1992 2.3711-5.8828 6.2109-10.684 7.9297-4.0273 1.4414-12.008 2.4453-16.926 2.4805-3.707-0.57422-8.5039-3.5117-10.887-8.7773 3.4492-0.19531 6.6953-1.4492 9.8398-2.6602 3.4219-1.3203 6.9453-2.6836 10.758-2.6836 0.45312 0 0.91406 0.019531 1.3789 0.0625 2.8398 0.25391 5.9336-0.64453 9.1992-2.6719 2.6641-1.6523 4.7734-3.6328 5.9062-4.6992 0.41016-0.38672 0.69141-0.64844 0.8125-0.72266 2.125 4.1484 2.3398 8.3164 0.60156 11.746zm-1.8711-11.734c-2.0508 1.9883-7.3828 7.1641-13.703 7.1641-0.21875 0-0.4375-0.007812-0.65625-0.019531-0.29688-0.015625-0.59766-0.023438-0.89844-0.023438-4.3008 0-8.9883 1.6719-13.156 3.1562-3.2578 1.1602-6.332 2.2578-8.5742 2.2812-1.6094-3.0664-3.7695-6.0117-6.0898-8.2969-2.3125-2.2812-4.5234-3.6445-6.2188-3.8477-0.91016-0.10547-1.6328 0.13672-2.1484 0.72656-0.58594 0.67188-0.83594 1.3789-0.73438 2.0898 0.22266 1.6367 2.168 2.9414 3.2578 3.6562-1.7461-0.66016-4.7734-1.1562-6.5234-0.26562-0.75391 0.38281-1.1992 0.98047-1.3281 1.7773-0.17578 1.0938 0.046875 1.9727 0.68359 2.6836 1.9414 2.168 7.8359 2.9336 18.551 2.4102 1.707 3.0664 3.5156 5.3594 5.3672 6.8086 1.4258 1.1172 2.2109 1.2812 3.4727 1.8828-3.6797 0-8.4648-0.72266-10.52-1.457-1.9961-0.71484-4.2617-1.5234-7.8711-1.9414-1.918-0.22266-3.3125-0.35156-4.4336-0.45703l-0.039062-0.003906c-3.5039-0.32812-3.9531-0.37109-7.9336-2.0117-5.2891-2.1836-6.3789-2.6641-9.0664-4.8125 0.70703-2.5625 2.0742-4.1797 3.4492-5.5469 0.023438-0.023437 0.050782-0.050781 0.082032-0.082031 1.8281-1.8086 2.6484-3.3047 2.4375-4.4492-0.12891-0.69531-0.64453-1.25-1.5352-1.6484 1.2617-1.1367 3.6133-2.1719 6.9883-3.0742 3.1758-0.85156 7.1016-1.5469 11.664-2.0703 8.9258-1.0234 19.344-1.2305 27.871-0.55469 9.8125 0.77734 16.352 2.6133 18.426 5.1797-0.14062 0.09375-0.41406 0.35938-0.81641 0.74609zm-64.16 1.8008c-0.40625 0.69922-1.2188 1.4648-1.5938 1.3555-0.070313-0.019532-0.10938-0.082032-0.12109-0.18359-0.0625-0.52344 0.61328-1.8047 1.2617-2.1797 0.11719-0.070312 0.23047-0.10156 0.33203-0.10156 0.097656 0 0.1875 0.03125 0.26562 0.089844 0.17969 0.17578 0.12891 0.54687-0.14453 1.0195zm68.793 24.352c-0.61719-0.12891-1.5312-0.26172-2.4219-0.39453-1.4375-0.21094-2.9219-0.42969-3.1172-0.61328-0.63281-0.58984-0.99609-2.1055-0.43359-3.7578 0.25391-0.73828 1.1914-1.6406 2.5742-2.4766 1.2852-0.77734 2.7305-1.3477 3.7852-1.4961-0.011719 1.3594-0.11719 2.9531-0.19922 4.0391-0.11328 1.5234-0.23438 3.0938-0.19141 4.6914zm-4.0312 26.055zm1.0625 6.9141c-0.03125 0.003907-0.0625 0.003907-0.089844 0.003907-0.30078 0-0.48437-0.17578-0.58984-0.32813-0.25391-0.375-0.28906-1.0273-0.078125-1.4258 0.058594-0.10938 0.15234-0.23047 0.29688-0.28516 0.050781-0.019531 0.10156-0.027344 0.16406-0.027344 0.49219 0 0.89453 0.64062 0.92188 1.2148 0.027344 0.48828-0.20703 0.80469-0.62891 0.85156zm1.6602-8.375c-0.074218 0.027344-0.15234 0.050781-0.22656 0.082031 0.074219-0.027343 0.15234-0.054687 0.22656-0.082031zm-0.87109 0.39453c-0.11719 0.066407-0.22656 0.13672-0.33594 0.21094 0.10547-0.074219 0.21875-0.14453 0.33594-0.21094zm13.57-18.758c0.41016 1.6211-1.1914 14.949-1.5156 16.078-0.21875 0.76562-0.61328 1.1797-1.3203 1.3711h-0.007813c-0.050781 0-0.26562-0.035157-0.53516-0.078125-0.97656-0.16016-3.0078-0.49219-5.1523-0.55078-0.21094-0.003906-0.41797-0.007812-0.61719-0.007812-2.3477 0-4.0664 0.38281-5.1133 1.1367-0.14062 0.10156-0.24609 0.22266-0.36328 0.33984-0.015625 0.015626-0.027343 0.027344-0.042969 0.039063-0.18359 0.1875-0.32812 0.39062-0.44922 0.60938-0.011719 0.019531-0.023438 0.039062-0.035156 0.058594-0.035157 0.070312-0.089844 0.13281-0.12109 0.20703 0.4375-2.0664 1.1406-3.1133 3.1797-3.1133 0.13672 0 0.26172-0.058594 0.37109-0.17188 1.0156-1.0234 0.96875-6.7266 0.92578-12.242v-0.023437c-0.027344-3.6172-0.058594-7.0391 0.23438-8.6719 10.688 3.2812 10.609 4.2852 10.562 4.8281-0.007812 0.066406-0.011719 0.12891 0.003907 0.1875zm-14.738 23.633c-0.40234 0-0.73828 0.21875-0.87109 0.55078-0.011718-0.61328 0.046875-1.3672 0.14844-2.4219 0.09375-1.0781 0.53125-1.9453 1.293-2.5742 2.2227-1.8281 6.8242-1.3438 9.5781-1.0508 1.1875 0.125 2.043 0.21875 2.3555 0.10547 0.75391-0.26953 1.6719-0.87891 1.7695-2.2461 0.027343-0.23438 0.066406-0.53125 0.10547-0.87891 0.44141-3.5898 1.4727-11.992 1.3711-14.719 0-0.125 0.003906-0.23828 0.011719-0.35156 0.0625-1.4922 0.09375-2.1719-11.547-6.082-0.050782-1.5938 0.058594-3.0664 0.17578-4.6211l0.015625-0.19531c0.10156-1.3555 0.20703-2.7539 0.20312-4.168 0.86328 0.21875 1.8633 0.4375 2.918 0.67188 5.8203 1.2891 13.797 3.0547 15.441 7.5391 1.1445 3.1172 1.0547 9.4922 0.90234 13.016-0.23438 5.3711-0.85547 10.219-1.3438 12.227l-0.019532 0.089844c-1.1055 4.5469-1.832 7.5547-5.0195 9.1836-2.9844 1.5273-13.297-0.35156-15.387-0.75391-0.34766-3.0898-1.7812-3.3008-2.0625-3.3125h-0.046874zm-65.453-55.336s-0.003906 0-0.003906-0.003906c0.003906 0 0.003906 0 0.003906 0.003906z"/>
<text x="0.0" y="117.5" font-size="5.0" font-weight="bold" font-family="Arbeit Regular, Helvetica, Arial-Unicode, Arial, Sans-serif" fill="#000000">Created by Rachel Fredericks</text><text x="0.0" y="122.5" font-size="5.0" font-weight="bold" font-family="Arbeit Regular, Helvetica, Arial-Unicode, Arial, Sans-serif" fill="#000000">from Noun Project</text></svg>