<?xml version="1.0" standalone="no"?>
<!DOCTYPE svg PUBLIC "-//W3C//DTD SVG 20010904//EN"
 "http://www.w3.org/TR/2001/REC-SVG-20010904/DTD/svg10.dtd">
<svg version="1.0" xmlns="http://www.w3.org/2000/svg"
 width="1280.000000pt" height="857.000000pt" viewBox="0 0 1280.000000 857.000000"
 preserveAspectRatio="xMidYMid meet">
<metadata>
Created by potrace 1.15, written by Peter Selinger 2001-2017
</metadata>
<g transform="translate(0.000000,857.000000) scale(0.100000,-0.100000)"
fill="#000000" stroke="none">
<path d="M8730 8559 c-49 -11 -135 -38 -385 -119 -88 -28 -299 -97 -470 -152
-369 -119 -985 -318 -1215 -393 -91 -29 -320 -103 -510 -165 -190 -61 -439
-142 -555 -180 -115 -37 -365 -119 -555 -180 -190 -61 -426 -138 -525 -170
-99 -32 -265 -86 -370 -120 -307 -100 -616 -200 -675 -220 -30 -10 -138 -45
-240 -78 -163 -53 -507 -165 -1360 -444 -552 -180 -1640 -542 -1713 -570 -56
-22 -81 -36 -87 -53 -12 -32 31 -295 50 -306 8 -5 94 -32 190 -61 l175 -53 5
-83 c4 -68 9 -86 25 -98 11 -8 76 -32 145 -54 559 -175 2782 -866 3397 -1056
84 -26 116 -41 124 -57 13 -23 20 -170 39 -757 6 -195 15 -458 21 -583 6 -158
6 -234 -1 -247 -11 -20 -12 -20 -59 4 -26 14 -104 42 -172 62 -168 50 -258 52
-350 7 -80 -40 -107 -68 -156 -163 l-38 -75 4 -211 c3 -186 1 -215 -14 -237
-14 -22 -15 -34 -6 -77 6 -28 11 -66 11 -84 0 -24 9 -43 29 -65 25 -27 36 -31
79 -31 72 0 97 23 105 96 3 32 2 64 -3 73 -4 9 -11 109 -15 223 l-8 208 42 64
c23 35 49 67 57 70 9 3 43 6 77 6 62 0 214 -56 1322 -485 132 -51 409 -158
615 -238 609 -236 862 -337 913 -365 105 -57 249 -254 267 -366 14 -86 1 -417
-17 -437 -12 -15 -12 -33 -1 -130 l13 -114 54 -27 c70 -36 90 -35 143 5 l43
33 0 360 -1 359 -26 67 c-35 93 -80 164 -169 272 -73 86 -165 174 -254 243
-22 16 -143 74 -270 128 -126 53 -234 101 -238 105 -5 4 -5 399 -1 878 l7 871
37 6 c20 3 83 36 141 72 114 72 128 80 210 117 31 15 76 41 100 60 109 83
2431 1696 2441 1696 27 0 1566 -433 1605 -452 31 -14 58 -41 97 -94 48 -66 55
-82 61 -139 7 -62 1 -267 -11 -388 -7 -73 3 -87 67 -87 37 0 49 4 53 18 7 23
46 320 53 402 7 87 -25 217 -67 270 -41 51 -154 157 -188 174 -32 16 -281 92
-334 101 -74 14 -74 -32 0 602 50 424 71 576 82 587 8 8 368 261 800 562 666
465 1289 902 1352 948 10 7 20 33 23 62 l7 50 -53 12 c-64 15 -581 112 -939
176 -382 68 -744 122 -1450 216 -490 65 -807 109 -1185 166 -285 42 -336 46
-395 33z m1656 -2386 c-3 -16 -12 -93 -21 -173 -14 -137 -68 -633 -81 -747 -4
-42 -9 -53 -23 -53 -10 0 -101 22 -202 50 -101 27 -311 84 -467 127 -155 42
-279 80 -275 84 20 19 1058 739 1066 739 5 0 6 -12 3 -27z m-5556 -2408 c574
-177 851 -260 1010 -304 93 -26 149 -46 158 -58 14 -19 14 -15 -7 -1262 -5
-347 -8 -385 -23 -395 -18 -11 -21 -10 -363 112 -743 265 -1131 405 -1137 410
-3 4 -11 284 -17 622 -6 338 -14 699 -17 803 -5 154 -4 187 7 187 8 0 183 -52
389 -115z"/>
</g>
</svg>
