<?xml version="1.0" encoding="utf-8"?>
<svg xmlns="http://www.w3.org/2000/svg" viewBox="104.5 154.2993 106.1 149.5006" width="106.1px" height="149.501px" preserveAspectRatio="none"><defs><style type="text/css">
	.st0{fill:#9D824E;}
</style></defs><path d="M210.6,284.6c0,0-12.7-10.8-24.8-29c7.3-1.4,11.8-3.3,11.8-5.4c0,0-12.3-10.4-22.3-27.6c7.5-1,12.4-2.7,12.4-4.6 c0,0-12.4-10.5-20.2-27.3c6.2-0.7,10.4-1.9,10.4-3.4c0,0-14.8-12.5-17.3-30.9c-0.4-2.7-5.8-2.9-6.2,0c-2.4,20.2-17.3,30.9-17.3,30.9 c0,1.5,4.4,2.8,10.9,3.4c-7.7,17.9-20.7,27.3-20.7,27.3c0,2,5.3,3.7,13.3,4.8c-10.1,18.1-23.2,27.5-23.2,27.5 c0,2.2,5.1,4.3,13.2,5.7c-12.4,19-26.1,28.8-26.1,28.8c0,5,19.1,9.2,44.2,10v5.2c0,2.1,1.7,3.8,3.8,3.8h10.1c2.1,0,3.8-1.7,3.8-3.8 v-5.2C191.4,293.7,210.6,289.6,210.6,284.6z" id="object-0"/></svg>