<svg version="1.1" id="Layer_1" xmlns="http://www.w3.org/2000/svg" xmlns:xlink="http://www.w3.org/1999/xlink" x="0px" y="0px"
	 width="100%" viewBox="0 0 544 480" enable-background="new 0 0 544 480" xml:space="preserve">
<path fill="#000000" opacity="1.000000" stroke="none" 
	d="
M545.000000,352.531342 
	C540.805908,365.248596 536.170471,377.369995 532.589050,389.795227 
	C530.554810,396.852783 525.358215,399.925171 519.852112,402.901367 
	C516.107178,404.925568 514.979065,407.150360 516.407166,411.209137 
	C518.171204,416.222778 519.440125,421.410248 520.938416,426.518097 
	C521.313599,427.797150 521.718628,429.055786 522.819336,429.966705 
	C529.609863,435.586548 531.633667,443.016602 531.364075,451.521606 
	C531.226318,455.867523 529.465637,458.633728 525.685608,460.637970 
	C517.713623,464.864838 509.073212,466.256439 500.281403,467.346222 
	C490.229034,468.592285 480.418610,467.364441 470.594910,465.345276 
	C460.539368,463.278442 455.226776,456.962585 458.141968,447.179779 
	C459.598083,442.293427 462.803192,436.515686 468.165314,433.884552 
	C474.628204,430.713165 475.178986,424.564423 476.518158,418.922760 
	C477.523926,414.685944 474.246887,413.303894 470.713226,413.464661 
	C460.395813,413.934021 450.567383,412.101654 440.898529,408.488617 
	C429.518768,404.236328 418.380219,399.425873 407.402618,394.288757 
	C397.208069,389.518158 393.887878,390.890015 391.647919,402.114319 
	C391.459229,403.059692 391.490753,404.124878 391.714935,405.063995 
	C392.890350,409.987579 391.473419,414.327545 389.913452,419.063171 
	C384.672241,434.974335 362.708099,436.651917 353.656921,425.259583 
	C347.526947,417.544037 340.279785,411.183868 331.083344,406.831299 
	C325.695343,404.281189 323.361023,397.885620 319.718353,393.180847 
	C316.871582,389.504089 314.446411,385.488678 311.989349,381.527283 
	C310.662354,379.387878 309.184143,378.620575 306.652405,379.400970 
	C294.682739,383.090790 282.266663,384.428467 269.927338,386.147705 
	C264.230865,386.941345 255.870010,395.459290 255.334808,401.075531 
	C254.274887,412.198151 247.297089,417.309692 236.613815,414.880524 
	C230.750488,413.547394 225.093826,411.581543 219.547363,409.329773 
	C214.440475,407.256470 212.210953,403.054779 212.484299,396.850098 
	C212.701950,391.909210 215.112885,388.819550 219.971619,387.527466 
	C222.200089,386.934845 224.485062,386.103302 225.079330,382.824921 
	C220.521164,379.582703 215.017807,378.307983 209.691147,376.686493 
	C208.246872,376.246887 207.320312,377.648041 206.336700,378.511780 
	C203.087051,381.365417 199.840439,384.222687 196.610031,387.098114 
	C190.676727,392.379608 184.228226,390.817871 181.175293,383.378387 
	C180.164398,380.914948 179.106796,378.466919 177.966553,376.061127 
	C175.550964,370.964569 173.591599,370.047668 168.676483,372.604370 
	C156.294647,379.045013 143.230530,383.130798 129.390594,384.785919 
	C127.574509,385.003143 125.749481,385.280792 123.927628,385.288086 
	C119.315430,385.306610 115.191132,386.293213 113.845711,391.358276 
	C112.621140,395.968414 113.521828,400.837555 117.137733,403.669525 
	C122.485397,407.857849 123.732094,412.957794 123.089149,419.081360 
	C121.599823,433.266144 121.902069,447.690948 117.556808,461.497009 
	C114.735680,470.460449 112.549469,471.916626 104.362877,467.717407 
	C96.144867,463.502045 88.496269,466.301575 80.599731,467.626953 
	C78.759331,467.935822 76.924095,468.545807 75.318207,467.300995 
	C69.689232,462.937805 62.873257,461.999969 56.239437,460.513977 
	C55.426929,460.332031 54.559376,460.283600 53.808132,459.961517 
	C51.583256,459.007538 48.374836,458.696198 48.398121,455.590118 
	C48.419781,452.700897 51.368172,451.763519 53.613289,450.863190 
	C56.066048,449.879578 58.688744,449.208893 61.298454,448.746979 
	C72.008476,446.851349 80.493355,441.685181 86.590134,432.526154 
	C90.556091,426.568176 94.927727,420.885895 98.143669,414.444244 
	C100.782448,409.158722 99.849045,402.592255 94.681908,399.912170 
	C90.298439,397.638489 88.760986,394.181152 87.855400,390.195465 
	C86.714325,385.173340 83.962166,381.980499 79.887772,378.807617 
	C65.958122,367.959991 59.398472,352.947052 57.737000,335.669098 
	C57.473026,332.924042 56.830769,330.593079 55.447670,328.217926 
	C46.038658,312.059967 47.708282,292.039886 59.489914,278.958160 
	C62.066368,279.021851 62.457226,281.759155 64.258385,283.128082 
	C67.757629,282.474426 70.235641,271.126434 74.981651,282.272369 
	C77.288261,280.405060 80.293449,280.614319 81.154472,276.671692 
	C82.183640,271.959106 81.377808,269.524628 76.978600,267.145630 
	C63.799366,260.018555 52.453304,250.293655 43.015892,238.817108 
	C36.639744,231.063278 29.134459,226.856415 19.579935,225.203690 
	C16.628445,224.693161 13.296437,224.544800 10.991945,221.980133 
	C12.216034,217.775650 17.290138,219.742111 19.188580,216.072098 
	C13.539134,213.013107 7.834475,210.159195 1.371074,208.045044 
	C1.000000,205.958328 1.000000,203.916672 1.365132,201.418579 
	C3.563418,200.574341 5.754373,200.962143 6.817884,198.631989 
	C5.151195,196.905121 3.192458,195.770630 1.000000,195.000000 
	C1.000000,192.958328 1.000000,190.916672 1.000000,188.437500 
	C25.338299,187.098938 46.916214,197.715286 69.451897,204.359528 
	C75.668236,206.192307 81.977882,207.716293 88.270546,209.277847 
	C90.182854,209.752396 92.198006,209.977112 94.455017,207.949203 
	C88.859756,206.947678 84.985054,204.035431 81.449364,200.201187 
	C79.245689,197.811432 75.443558,198.501526 72.373886,198.436646 
	C64.326599,198.266602 56.565670,196.322647 48.676746,195.187286 
	C46.029362,194.806290 44.169292,193.131546 42.355431,191.415283 
	C38.335716,187.611847 35.000645,183.250565 32.240921,178.465576 
	C29.673033,174.013199 30.267538,172.877701 35.317322,172.775589 
	C41.645779,172.647614 48.049564,172.060623 54.292747,172.781342 
	C66.841309,174.229950 75.664375,167.331604 84.661804,160.490952 
	C86.056938,159.430267 86.586937,157.803589 87.111420,156.219940 
	C88.628021,151.640594 90.039978,147.025131 91.634216,142.473297 
	C93.694229,136.591599 91.927368,130.870956 90.563156,125.325089 
	C89.336578,120.338707 90.997093,117.986145 95.353630,116.163208 
	C99.949265,114.240227 104.344276,111.826843 108.781281,109.539154 
	C112.299095,107.725388 113.560791,105.335983 110.160454,102.200775 
	C106.797440,99.099968 108.292618,96.971588 111.217819,94.567520 
	C122.199699,85.542053 134.079651,78.784912 148.588074,77.111267 
	C153.083069,76.592743 154.767349,77.626328 155.082062,81.893356 
	C155.210297,83.631836 154.777267,85.615074 156.594711,87.260918 
	C166.933456,80.524483 176.675400,84.143272 186.165848,89.533508 
	C193.804459,93.871971 201.838608,97.660347 208.106018,104.236153 
	C211.187546,103.982758 212.634491,101.903152 213.521179,99.221085 
	C214.200150,97.167282 214.603607,94.981239 215.558548,93.068123 
	C217.760834,88.656052 218.574539,84.781548 213.769623,81.327103 
	C212.042496,80.085434 211.725281,77.579674 211.713135,75.352371 
	C211.697556,72.493568 211.422119,69.922417 209.223419,67.561447 
	C206.751068,64.906593 208.882858,61.470299 208.830154,58.399399 
	C208.785324,55.788784 209.511688,53.134499 210.109573,50.548717 
	C212.312210,41.022552 220.490692,36.506184 229.998947,39.484455 
	C237.793152,41.925835 238.423035,42.258801 242.093307,35.315617 
	C248.849411,22.534859 260.723114,19.710217 273.268219,17.712263 
	C281.825470,16.349422 290.433411,16.134590 299.091583,16.567671 
	C302.297180,16.728014 304.855103,17.786552 307.215668,19.807659 
	C313.084961,24.832960 318.223297,30.497889 321.862061,37.332947 
	C323.448975,40.313820 324.963348,40.448009 327.761658,38.900860 
	C335.863770,34.421272 344.594055,34.235493 353.448639,35.959705 
	C357.098175,36.670361 358.942444,38.851875 358.173889,42.776409 
	C357.041992,48.556492 357.105865,54.305836 358.171417,60.129631 
	C359.236908,65.953003 357.047272,71.120026 353.243408,75.299889 
	C348.359344,80.666725 347.464325,86.183823 350.903381,92.524620 
	C351.531006,93.681763 351.833893,95.016090 352.277100,96.272018 
	C355.376617,105.055275 359.907379,106.916809 368.446289,102.544174 
	C372.468933,100.484238 376.354614,99.117180 380.785645,101.039543 
	C382.203156,101.654526 383.744873,101.752296 385.164764,101.064026 
	C392.413116,97.550423 399.497864,100.334160 406.616913,101.581825 
	C408.086548,101.839386 409.499298,102.428871 410.970337,102.669258 
	C417.137451,103.677025 418.285339,102.490181 416.396606,96.593124 
	C415.558807,93.977318 415.995148,92.069061 417.965424,90.348595 
	C418.090454,90.239395 418.198273,90.110451 418.313843,89.990463 
	C426.826996,81.155464 428.513489,80.980072 438.473999,87.978172 
	C440.245331,89.222702 442.017120,90.479858 443.681610,91.860306 
	C446.438782,94.146942 448.759583,94.366783 452.561127,93.069389 
	C457.812347,91.277229 463.694214,88.601967 469.526276,92.330307 
	C476.002441,96.470421 479.799744,108.920135 477.581390,116.440750 
	C475.330902,124.070274 474.933441,131.859604 478.507690,139.482681 
	C481.043640,144.891235 482.374451,150.273209 477.365723,155.528000 
	C474.800262,158.219467 472.665863,159.936920 468.819641,158.656525 
	C465.909393,157.687683 464.054626,158.538300 464.075287,162.180634 
	C464.123627,170.708176 463.739105,179.050873 457.991577,186.310699 
	C456.063965,188.745483 456.393829,192.384155 460.792023,192.980194 
	C477.357697,195.225113 489.082031,206.331329 501.976105,215.299576 
	C504.024811,216.724518 505.797974,218.612030 507.969574,219.783081 
	C521.151367,226.891525 527.461975,239.274841 533.307190,252.120148 
	C536.885803,259.984497 540.785645,267.702667 544.770630,275.743225 
	C545.000000,301.354218 545.000000,326.708466 545.000000,352.531342 
M258.818451,121.307289 
	C258.205048,119.864395 257.591614,118.421509 256.746613,116.241051 
	C255.997864,114.673264 256.071320,113.119766 256.372833,111.399986 
	C257.742828,103.585167 258.937439,95.739594 260.301361,87.243561 
	C248.771194,88.779129 242.069855,84.780624 243.705353,72.085045 
	C241.912460,72.648094 240.982834,73.175148 240.041565,73.196854 
	C234.624222,73.321739 230.862656,75.331215 229.938019,81.194267 
	C229.704025,82.678009 228.332565,83.541634 226.885101,82.651329 
	C223.884613,80.805801 220.514664,78.542847 220.427429,74.938683 
	C220.340332,71.340446 219.276062,68.174820 218.644943,64.800682 
	C217.865875,60.635559 217.856445,55.575890 220.888321,52.579372 
	C223.238541,50.256557 227.481415,51.384129 230.832031,52.855255 
	C232.910309,53.767754 234.744873,55.430084 237.387009,55.205235 
	C239.499863,52.136936 239.351303,49.673523 235.603714,48.115448 
	C232.687927,46.903191 229.808945,45.522659 226.786652,44.663555 
	C221.206375,43.077335 217.965042,45.753963 216.310883,51.268658 
	C214.010025,58.939358 216.602997,65.978531 217.857895,73.245010 
	C218.359436,76.149193 219.541763,78.550911 221.951050,80.375526 
	C224.650070,82.419579 225.375717,84.808784 223.861313,88.202774 
	C221.970200,92.440956 220.577713,96.926689 219.274445,101.394371 
	C218.179962,105.146271 216.425293,108.045288 212.519684,109.367699 
	C210.913071,109.911682 209.398407,110.820694 210.247696,113.045013 
	C211.900574,117.373962 212.459015,122.106026 215.211945,126.033539 
	C219.232391,131.769394 225.075211,136.879257 220.773239,145.981384 
	C225.300491,144.823456 228.399414,144.030853 231.894409,143.136932 
	C229.399155,140.697754 230.526138,140.027252 232.991913,139.537048 
	C238.478394,138.446274 243.913483,138.651642 249.381882,139.555206 
	C252.282730,140.034546 255.328812,140.123306 256.866516,137.073700 
	C259.277740,132.291580 261.367920,127.331856 258.818451,121.307289 
M74.153641,300.686920 
	C73.009354,301.416748 72.428734,303.293701 69.841240,302.262848 
	C71.560822,297.492279 76.505615,294.960571 78.383934,289.615265 
	C76.674461,290.873932 75.362404,293.135681 73.676247,290.871368 
	C72.560249,289.372681 71.679916,287.698517 70.639397,286.014465 
	C63.619217,293.753967 63.619217,293.753967 59.611042,289.169220 
	C53.951992,301.019745 52.383541,312.635681 59.901611,324.314850 
	C62.493607,328.341431 64.066940,332.618530 64.710854,337.650970 
	C65.819542,346.315887 67.681534,354.959808 72.862038,362.523621 
	C76.534088,367.885040 81.376328,371.874939 86.379898,375.710266 
	C89.459427,378.070770 91.333176,380.843872 92.336166,384.550446 
	C93.082344,387.307953 93.311630,390.467133 95.764153,392.371460 
	C99.604843,391.775970 101.180740,387.091064 105.184509,387.836609 
	C108.634056,388.478943 109.865555,387.073853 109.656143,383.883301 
	C109.455864,380.831909 111.028908,379.699280 113.861519,379.694916 
	C123.746559,379.679596 133.369644,377.666931 142.949860,375.578461 
	C153.318405,373.318115 163.293335,369.791931 170.740845,361.824493 
	C188.753876,342.553955 201.485413,320.536499 204.661850,293.825745 
	C204.941956,291.470459 204.978821,289.229004 208.547485,290.620941 
	C207.786453,285.858978 205.581863,280.892273 206.577255,277.582764 
	C207.956406,272.997284 205.815720,270.888824 204.134933,267.942322 
	C202.275955,264.683472 204.794281,264.187195 207.517227,263.795319 
	C202.926682,259.496063 198.608902,255.841324 194.747513,251.755280 
	C186.599915,243.133698 176.963623,235.217453 178.327087,221.401016 
	C178.345520,221.214279 177.888489,220.980606 176.939651,220.125977 
	C161.161407,230.412338 143.282455,228.646866 125.210495,226.117340 
	C126.031227,229.891144 130.242065,230.751892 129.376373,235.013535 
	C126.030540,232.518127 122.989227,230.539566 120.297882,228.164444 
	C117.361832,225.573410 114.711800,224.926086 110.849419,226.606628 
	C105.828659,228.791229 98.018234,225.014175 95.559418,219.857590 
	C94.615051,217.877075 93.323181,216.662094 91.100731,216.374313 
	C83.286850,215.362473 75.957893,212.523666 68.521805,210.152145 
	C52.677994,205.099197 36.930275,199.738235 20.727276,195.895462 
	C19.364407,195.572250 17.832787,194.684601 16.939335,196.719788 
	C17.807045,199.422058 21.894053,199.020401 22.283495,202.763168 
	C19.296499,203.728592 16.245985,204.714554 12.563596,205.904724 
	C17.671400,209.184830 22.761328,210.665085 27.638481,212.625305 
	C29.877253,213.525085 33.148556,213.803101 33.305386,216.754517 
	C33.471466,219.880005 29.860670,219.179398 28.064899,220.395416 
	C27.850880,220.540329 27.780817,220.897842 27.484318,221.459167 
	C32.977905,222.395767 37.424110,225.013687 41.032036,229.209030 
	C47.341209,236.545410 54.445164,243.111603 61.587646,249.610092 
	C72.200066,259.265717 84.052292,266.766083 98.328568,269.823944 
	C99.381516,270.049500 100.735741,270.175476 100.531052,272.003784 
	C98.112648,273.052490 95.473793,272.713593 93.281677,271.976593 
	C89.315475,270.643005 87.960167,272.369659 87.761223,275.760284 
	C87.163086,285.954498 81.373154,293.297729 74.153641,300.686920 
M225.220398,245.737961 
	C218.270737,244.518723 212.960861,240.018890 207.086868,236.654877 
	C200.107376,232.657730 193.157135,228.609467 185.940842,224.436859 
	C184.462860,229.202484 187.377884,230.455124 190.029831,231.873932 
	C205.595245,240.201508 222.389084,245.849854 238.089951,253.871140 
	C251.622330,260.784576 264.870209,268.143036 273.853149,281.045929 
	C275.006317,282.702301 276.959442,284.184235 275.950745,287.184021 
	C269.870941,287.321869 264.430298,283.603394 258.198334,283.539490 
	C258.611206,286.082703 260.085876,287.753815 260.919220,289.705322 
	C261.712921,291.563995 263.708099,293.180328 262.509125,295.670929 
	C259.736084,296.954803 257.343048,295.003082 254.763763,294.874878 
	C253.869888,298.578583 253.390198,298.886871 249.016479,297.988037 
	C240.720535,296.283203 232.509689,294.207550 224.116669,292.922607 
	C212.645645,291.166412 213.384750,289.065674 213.166107,301.709991 
	C213.110489,304.926971 213.242401,307.936798 208.447754,306.356842 
	C206.231567,320.562714 198.116394,331.846222 191.821350,344.687958 
	C194.795532,344.261841 194.622437,342.801910 195.061676,341.848328 
	C198.365845,334.674835 202.839325,328.288025 207.968628,322.321899 
	C209.537216,320.497437 211.579269,319.007263 213.449799,321.038635 
	C216.659485,324.524353 219.170425,322.620361 222.159149,320.945984 
	C228.548721,317.366333 235.028610,313.941620 241.549942,310.606842 
	C243.843262,309.434143 246.379150,309.114746 248.636200,310.896179 
	C250.653061,312.488037 251.695557,314.749023 250.688568,317.093262 
	C248.536072,322.104156 250.573776,324.025299 255.370590,324.583618 
	C257.447693,324.825409 259.174316,325.756622 259.484314,328.231873 
	C259.770752,330.518890 258.769653,332.050140 256.950836,333.243469 
	C248.432129,338.832642 241.033432,345.849945 233.065399,352.139679 
	C226.364059,357.429535 220.251587,363.450073 214.757812,370.321869 
	C218.751144,373.150391 222.845413,374.171204 226.753052,375.401367 
	C252.289536,383.440674 277.656433,380.420197 302.961487,373.978271 
	C306.349548,373.115753 308.101227,371.654816 307.911102,367.841736 
	C307.730042,364.210785 308.231720,360.540863 308.509064,356.893829 
	C308.686493,354.560883 309.776886,352.662140 312.015991,351.840332 
	C318.340424,349.519104 324.239899,346.678619 331.678314,348.970337 
	C344.316589,352.864136 344.552612,352.398590 351.571259,340.892090 
	C353.425751,337.851807 355.166443,335.677277 359.482910,338.699524 
	C359.779755,332.265137 366.426147,330.236389 367.386383,324.355377 
	C360.002228,328.702667 355.359894,326.735107 354.622101,318.366486 
	C354.009949,311.422760 350.960052,306.145203 346.597595,301.188568 
	C344.730408,299.067047 342.883698,296.871582 341.396301,294.480438 
	C328.910461,274.408112 327.466766,277.830719 342.041260,257.843597 
	C344.818695,254.034683 346.398956,250.376968 345.508820,245.921234 
	C344.619293,241.468491 346.658783,239.091492 350.295837,237.188980 
	C358.262238,233.021820 366.157135,228.716614 374.045074,224.401672 
	C375.922119,223.374863 378.388031,222.693680 379.160339,220.596283 
	C380.830627,216.060272 384.390625,213.419769 387.961578,210.675842 
	C389.130707,209.777451 390.379730,208.914139 390.547760,207.189713 
	C391.151886,200.990387 381.003418,190.023712 374.660950,190.611877 
	C367.841949,191.244202 361.031677,191.251602 354.211823,191.373215 
	C352.671234,191.400681 351.270386,191.664169 349.998169,192.622025 
	C346.276367,195.424072 342.400024,198.033356 338.799286,200.980896 
	C333.257294,205.517563 327.140747,208.395416 319.986053,209.522644 
	C313.721710,210.509583 306.935486,210.455414 302.196899,215.967819 
	C298.397552,220.387619 293.334320,221.520157 287.745422,221.202103 
	C285.088348,221.050888 282.417969,221.143814 279.753967,221.102463 
	C273.560089,221.006302 267.873932,219.725632 263.844025,214.422821 
	C262.913300,213.198120 261.629120,212.507797 260.007050,212.358505 
	C256.697083,212.053864 253.398758,211.280838 250.097214,211.289597 
	C238.796432,211.319534 229.550674,206.714493 221.401367,199.288666 
	C219.866959,197.890503 218.476059,196.089020 216.130310,195.934891 
	C213.325897,200.335938 214.634918,203.675964 218.293457,206.748505 
	C224.030151,211.566330 229.642120,216.534714 235.239731,221.514862 
	C236.970657,223.054825 238.886063,224.727554 237.797012,227.481140 
	C235.094482,234.314407 231.809464,240.783173 225.220398,245.737961 
M238.807007,146.148972 
	C233.530823,146.465378 228.364975,147.170807 223.868393,149.962616 
	C224.241547,152.530334 227.933411,152.571930 227.259689,155.068115 
	C226.197128,157.095169 224.204468,155.868073 222.835419,157.201492 
	C224.500305,159.370468 225.141785,161.239273 221.667084,162.794647 
	C214.000793,166.226318 213.534546,168.872589 218.710938,175.485977 
	C220.626312,177.933090 222.851395,180.039383 223.464096,183.486694 
	C225.926910,197.343384 233.841599,205.094894 247.416718,207.415817 
	C248.722351,207.639053 250.099716,207.488159 251.385651,207.773178 
	C256.871613,208.989029 263.190063,207.532593 267.373108,212.962875 
	C270.389709,216.878922 274.677612,217.873505 279.411652,217.712967 
	C282.738983,217.600143 286.082550,217.547760 289.402618,217.743729 
	C293.487366,217.984833 297.019928,216.953537 299.753296,213.862534 
	C304.109772,208.936035 309.754608,207.287613 316.073853,206.530807 
	C321.136017,205.924515 326.773346,205.392380 330.515839,201.731415 
	C337.340942,195.054901 343.235931,187.518829 343.633423,177.277328 
	C343.719330,175.064255 344.614166,173.558441 346.217224,172.168625 
	C350.912567,168.097916 350.888153,168.056183 346.331512,163.224091 
	C344.212097,160.976593 342.053986,158.757812 346.868622,157.049057 
	C338.490814,149.262360 338.490814,149.262360 338.751648,145.709305 
	C337.133453,141.881683 326.779053,148.814453 331.159088,138.503265 
	C326.301300,137.392731 322.025665,139.753006 317.522064,140.704575 
	C313.388916,141.577881 308.736420,142.618347 305.822662,138.907852 
	C301.558441,133.477615 298.144592,126.798660 300.370758,119.987785 
	C302.342499,113.955292 301.733948,108.869492 300.053009,103.179024 
	C298.589935,98.226067 296.898193,93.371483 295.230408,88.497490 
	C292.111816,79.383690 292.120148,79.380844 282.872620,80.299583 
	C266.290253,81.947037 265.334900,82.738159 261.905518,98.732475 
	C261.001190,102.950119 260.500793,107.252960 259.720703,111.499374 
	C259.425781,113.104637 259.861298,114.454437 260.645721,115.770691 
	C265.211975,123.432777 263.277008,130.819992 259.679688,138.120285 
	C257.639496,142.260574 254.231140,143.835449 249.779480,142.983963 
	C246.983978,142.449249 244.215363,141.966354 240.890503,142.332092 
	C240.951263,143.615005 241.176071,145.250168 238.807007,146.148972 
M391.213501,296.791168 
	C392.253326,297.806030 393.631409,297.791870 394.933014,298.029144 
	C402.544189,299.416626 410.235046,298.165619 417.868896,298.737793 
	C419.727875,298.877106 421.994720,298.178589 423.058533,301.362640 
	C412.518341,309.368134 399.689056,310.231354 386.236816,312.355103 
	C399.376434,313.714905 410.873077,311.206451 422.157166,307.475677 
	C425.413727,306.398987 427.552155,307.121613 428.037781,310.513824 
	C429.315704,319.440155 432.004242,328.024231 434.043243,336.765381 
	C435.032440,341.006134 433.572144,343.893768 429.433075,346.056702 
	C421.395447,350.256836 412.710571,352.618042 404.319275,355.807037 
	C401.371490,356.927338 399.704041,356.036224 397.753784,353.386322 
	C389.564850,342.259644 386.478241,329.083893 382.136627,316.313080 
	C380.818542,316.233276 379.453949,315.583984 377.772095,316.487030 
	C381.391174,325.281616 385.195251,333.757477 388.860962,342.301178 
	C395.866058,358.628052 403.825317,374.058044 416.951569,386.613953 
	C431.544159,400.572449 447.578613,408.495300 468.278625,403.716248 
	C475.938873,401.947754 479.083740,397.790375 476.435974,391.094208 
	C473.794312,392.372345 472.158325,394.751099 470.233948,396.699066 
	C463.836975,403.174286 455.831818,404.281250 448.115875,401.301727 
	C438.823059,397.713226 430.800110,391.442474 422.674408,385.614441 
	C420.537567,384.081818 419.904938,382.245605 421.368622,380.061584 
	C427.441589,370.999939 431.764374,361.112732 435.466125,350.904877 
	C436.798828,347.229797 438.875092,346.805908 442.391296,348.962891 
	C452.461273,355.140259 462.762512,361.027496 472.644318,367.419373 
	C482.189362,373.593506 490.095306,373.313690 498.936859,367.097321 
	C501.516174,365.283844 502.971588,363.710083 503.076508,360.455658 
	C503.676880,341.833710 502.660187,323.235504 502.442993,304.626984 
	C502.396179,300.617554 500.594208,297.423676 497.208008,295.057098 
	C493.914429,300.403351 500.637177,310.347748 488.972626,311.251068 
	C489.268311,312.346069 489.422089,313.340668 489.797943,314.242706 
	C494.252625,324.934204 494.046997,335.943939 492.339508,347.134064 
	C491.629791,351.785309 489.489838,354.045959 484.682495,353.301392 
	C478.986023,352.419159 473.177429,352.288666 467.539520,350.773132 
	C473.099884,354.208130 479.263641,355.752502 485.607697,356.656738 
	C487.901489,356.983704 490.255707,357.153564 489.645020,360.288025 
	C489.065582,363.261871 488.246704,366.437469 484.108917,366.019135 
	C470.388733,364.631958 460.383270,356.405609 450.680176,347.674988 
	C450.407104,347.429260 450.521729,346.752625 450.487946,346.509705 
	C451.360718,344.516113 453.290741,346.189331 454.476440,345.011169 
	C451.194794,343.426392 448.155304,341.654236 444.901978,340.468750 
	C441.290070,339.152557 439.255524,337.048187 438.228363,333.208313 
	C436.081024,325.180756 433.390228,317.298828 430.936432,309.352875 
	C429.466034,304.591400 430.357269,303.425537 435.194672,304.409058 
	C442.366577,305.867218 449.464478,307.685730 456.625275,309.202789 
	C463.821198,310.727264 471.060120,313.357849 478.409332,309.175446 
	C476.685394,307.323792 476.784637,304.114075 472.943848,304.251190 
	C460.252228,304.704254 447.748260,302.290436 435.144196,301.330841 
	C433.473114,301.203613 431.785339,301.106598 431.071991,298.461029 
	C440.005493,294.124756 450.599121,294.409027 459.881439,289.693512 
	C458.099030,287.916779 456.947235,288.337433 455.830627,288.608765 
	C449.530243,290.139679 443.230072,291.671844 436.936188,293.229187 
	C431.024902,294.691833 430.275543,294.310303 428.668213,288.219177 
	C426.970581,281.785889 425.777039,275.195862 423.696106,268.894653 
	C421.929138,263.544098 423.903931,260.644104 428.511749,258.702576 
	C431.732025,257.345734 434.981232,256.049042 438.260834,254.843262 
	C444.071533,252.706924 449.585114,250.039673 454.630463,246.407913 
	C458.609497,243.543701 459.585327,243.992218 461.367889,248.603241 
	C463.037231,252.921448 464.070892,257.554779 467.200897,261.206635 
	C469.057770,263.373077 470.963379,264.352448 473.363953,261.506470 
	C470.865295,259.347870 468.338257,257.459442 467.852448,253.975540 
	C466.957611,247.558121 465.911926,241.160049 464.822876,234.772034 
	C464.173279,230.961700 465.075226,227.904327 468.354034,225.615524 
	C469.688568,224.683929 471.582001,223.733231 471.438416,221.936279 
	C471.196106,218.903381 471.813751,214.827271 468.238251,213.659943 
	C464.268890,212.363998 460.691010,207.484207 455.645782,211.743546 
	C448.025360,218.177002 439.631256,222.891708 429.294830,223.604111 
	C422.521484,224.070938 415.802734,225.320557 409.056854,226.199005 
	C405.243561,226.695587 401.849457,226.061111 399.107025,222.979065 
	C398.095337,221.842056 396.623108,219.930161 394.918640,221.294327 
	C390.547546,224.792648 385.198212,227.214294 382.384369,232.499161 
	C377.434082,241.796768 373.483093,251.374069 371.406189,261.827698 
	C370.395111,266.916718 370.834351,270.508667 375.214630,273.348663 
	C376.923462,274.456604 377.822052,277.433929 380.429443,276.370239 
	C383.092010,275.284119 384.244171,272.613281 384.524231,269.905090 
	C384.865692,266.603424 384.769196,263.254028 384.812836,259.924591 
	C384.895172,253.644775 385.599731,253.026489 391.434570,254.627762 
	C398.808929,256.651489 406.156921,258.771301 413.515900,260.851105 
	C415.770905,261.488403 417.064484,262.716370 417.568451,265.259827 
	C419.351685,274.260162 419.917389,283.390961 420.858643,292.481354 
	C421.092621,294.740875 420.125854,295.870728 417.595673,295.510193 
	C414.635284,295.088348 411.630493,294.986969 408.649628,294.698425 
	C402.270142,294.080872 395.937500,292.507111 389.551788,293.461456 
	C389.090179,295.026581 390.198975,295.519379 391.213501,296.791168 
M381.608521,117.845261 
	C378.773651,116.810822 376.477753,116.906731 374.761566,120.013062 
	C373.746246,121.850777 372.282715,123.804886 370.192963,124.491402 
	C365.969574,125.878853 366.452759,129.717117 365.159515,132.688232 
	C367.799805,131.023224 370.080414,129.121964 372.256866,127.108101 
	C374.697296,124.849998 376.802338,124.478737 379.565033,126.976868 
	C386.116028,132.900513 392.797516,138.760666 398.378815,145.554123 
	C403.536438,151.831894 409.925018,153.415573 417.365692,153.307312 
	C419.917053,153.270187 422.645111,152.615997 425.479126,155.181732 
	C421.253265,158.885925 416.196350,160.595490 411.764252,163.231659 
	C409.081146,164.827545 406.329102,167.280975 403.151062,166.873917 
	C390.154510,165.209122 377.398102,162.420273 364.728149,157.048416 
	C367.514984,163.967422 366.227386,172.059479 372.253754,177.744736 
	C378.081879,183.242920 384.475037,188.025620 391.063568,192.543030 
	C395.447449,195.548828 400.059631,195.510483 404.722534,192.998840 
	C406.062927,192.276840 407.256866,190.598465 409.128906,191.918335 
	C408.121216,195.957489 408.121216,195.957489 395.427338,198.547516 
	C396.032562,203.221237 396.760895,207.931732 397.228455,212.667969 
	C397.950562,219.982925 401.588501,223.353607 409.025635,222.800385 
	C416.641815,222.233841 424.189545,220.765045 431.757050,220.028061 
	C441.836853,219.046402 448.715546,212.921768 456.158478,207.434189 
	C457.750732,206.260208 458.389557,204.201218 456.189941,203.533112 
	C451.291656,202.045395 450.494812,198.158936 449.978333,193.967636 
	C447.460602,195.013931 446.906952,198.330261 443.591339,198.197662 
	C443.517303,195.358200 445.461578,193.768723 446.834625,192.138504 
	C455.879120,181.399979 459.610168,169.050278 458.697662,155.130936 
	C458.540527,152.734055 457.880707,150.798813 456.630829,148.681656 
	C450.465515,138.238312 440.505371,130.141571 438.480988,117.056473 
	C437.351532,109.756012 427.318756,105.403229 420.390045,108.369743 
	C416.910248,109.859612 413.811066,109.508690 410.278015,108.935043 
	C400.702209,107.380310 391.045135,102.127968 381.225952,109.282944 
	C380.349945,111.806854 385.445343,114.232895 381.608521,117.845261 
M193.751633,187.677872 
	C189.837097,185.997757 188.487366,183.289673 189.496506,178.978378 
	C190.684814,173.901703 188.146194,169.140717 185.116928,165.927505 
	C182.490677,163.141815 176.633575,164.486862 174.434998,160.286407 
	C172.512970,159.889999 172.381516,162.439529 170.314209,161.678879 
	C168.630539,158.065659 164.615982,156.687729 161.312592,154.915558 
	C161.803818,152.197281 164.950699,153.008728 165.203186,150.330200 
	C161.897964,146.701691 158.451309,142.620316 153.748459,140.529892 
	C140.794922,134.772079 127.318924,130.457077 113.421249,127.535957 
	C110.654953,126.954521 108.550339,127.645508 107.172607,130.304504 
	C104.875427,134.737991 102.458900,139.109512 100.110504,143.516647 
	C98.959404,145.676865 99.181076,147.908234 99.605957,150.386444 
	C106.307625,144.064911 107.629356,143.563766 110.195267,146.228546 
	C113.966248,150.144836 114.561920,159.804733 110.465248,162.833099 
	C104.907608,166.941437 102.768509,160.054138 99.008217,158.263916 
	C89.535728,167.597015 87.193901,174.962158 91.652107,181.388962 
	C97.276871,181.119705 100.110512,176.637665 103.876045,173.457840 
	C115.228424,163.871399 128.505341,167.213089 137.561783,176.911118 
	C140.960892,180.551025 143.502594,184.694794 148.493484,186.496643 
	C152.146423,187.815460 152.438431,190.485703 151.637421,194.197769 
	C149.832031,202.564331 142.991882,206.543365 137.163452,211.043655 
	C132.509445,214.637161 127.020531,217.277145 122.083076,220.749466 
	C153.303558,232.258102 187.885483,217.013824 194.685181,200.047150 
	C193.567780,198.598251 191.266602,201.167847 190.381958,198.709930 
	C190.444382,196.489777 193.258087,196.150604 193.846298,193.785233 
	C189.928238,192.170013 193.090942,190.225311 193.751633,187.677872 
M342.057526,85.050339 
	C340.670532,80.759956 342.977814,77.601776 345.476929,74.663551 
	C351.291901,67.826836 354.610748,60.419827 351.916077,51.236683 
	C351.571838,50.063572 351.900726,48.566898 352.278931,47.330620 
	C353.606995,42.989540 351.590424,40.612137 347.576050,40.680534 
	C339.535858,40.817524 331.600800,41.792377 325.495575,48.049038 
	C323.987640,49.594368 322.729828,51.047600 324.322144,53.211163 
	C325.923859,55.387493 327.544281,53.994072 329.129181,53.182552 
	C333.597595,50.894577 338.251495,49.182327 343.240479,48.430092 
	C344.829987,48.190430 346.246735,48.348347 347.295593,49.682793 
	C348.419189,51.112350 347.363098,52.151237 346.571167,53.206753 
	C344.654968,55.760757 345.100647,58.648006 345.726288,61.376923 
	C346.949280,66.711327 343.317810,70.091705 340.294006,72.931313 
	C338.188782,74.908333 332.713623,72.609879 331.872742,71.517494 
	C328.290680,66.864029 323.477753,70.313469 319.791321,67.851570 
	C319.180695,70.804893 320.635834,72.642189 321.088165,74.696320 
	C323.001587,83.385147 320.069275,86.294022 311.588409,84.160103 
	C306.707428,82.931969 302.053864,80.464417 296.328003,81.080589 
	C300.020966,92.720947 305.102783,103.603790 306.272247,115.733017 
	C308.652893,115.841072 311.399689,115.095306 313.669312,117.066734 
	C317.766052,120.625237 319.965942,125.344971 320.818634,130.459335 
	C321.385162,133.857224 319.372498,136.409592 315.679199,137.337341 
	C313.041321,138.000000 310.739075,137.044815 308.364227,136.190857 
	C311.345154,140.102997 314.898987,138.290924 318.352875,137.387299 
	C324.511932,135.775940 330.658295,133.512466 336.350159,136.427750 
	C337.695801,138.941956 335.152863,139.539825 335.401947,141.133102 
	C345.411713,143.055450 345.411713,143.055450 342.959015,149.572067 
	C346.711365,152.616852 351.122986,155.067764 353.714142,159.096268 
	C353.189240,161.412308 350.630188,160.183289 349.847778,161.626358 
	C351.723419,164.115204 354.964874,164.853012 355.847229,168.347672 
	C354.521606,169.421951 353.132019,170.557465 351.732208,171.680191 
	C349.667389,173.336288 347.286133,174.731781 346.980164,177.770523 
	C346.417206,183.361267 344.751007,188.626358 341.268890,194.419205 
	C348.728546,189.226013 354.499603,183.987946 360.063904,178.480820 
	C362.464355,176.105011 363.249115,173.687927 362.168030,170.401581 
	C360.870392,166.456894 359.880310,162.403915 358.913879,158.360336 
	C358.417480,156.283371 357.727539,153.866776 360.006805,152.415985 
	C363.901367,149.937042 363.314667,146.857391 361.838043,143.321457 
	C360.622314,140.410263 359.744598,137.356491 358.750031,134.354996 
	C358.277252,132.928207 357.724640,131.426483 358.728394,130.036240 
	C363.035553,124.070847 359.810272,117.602493 360.692474,111.131149 
	C359.042389,111.221184 358.019928,111.114281 357.087219,111.355110 
	C352.209625,112.614525 349.801086,110.738609 348.560333,105.856476 
	C346.841766,99.094322 344.431915,92.507866 342.057526,85.050339 
M306.123505,59.232384 
	C311.843140,60.538071 317.137421,63.460140 323.545654,64.175270 
	C320.743774,52.604145 317.485565,41.763870 310.612671,32.555912 
	C306.834320,27.493900 302.075836,22.954681 295.244385,22.469549 
	C281.977661,21.527411 269.012329,23.034479 256.759125,28.596235 
	C254.378738,29.676701 251.833084,30.668776 250.591644,33.362404 
	C248.365540,38.192509 245.545990,42.816757 243.902679,47.831219 
	C241.690796,54.580616 239.051010,61.455521 240.912888,69.695068 
	C260.976562,55.282856 282.454865,52.477402 306.123505,59.232384 
M496.503479,238.978455 
	C491.120270,234.146027 486.721008,227.970825 478.884644,226.550583 
	C473.024261,225.488449 468.909271,228.660675 469.316467,234.627472 
	C469.745239,240.910400 470.620667,247.168289 471.472198,253.413773 
	C471.745819,255.420532 472.820038,257.059814 475.071320,257.062744 
	C476.528198,255.528763 474.697815,253.472839 476.486298,252.246674 
	C479.190796,252.921600 478.269409,256.423676 480.215149,257.355164 
	C482.651001,258.027283 484.234772,255.043762 487.415375,256.931000 
	C479.617096,262.919037 471.552490,267.492310 461.558319,270.732788 
	C470.986298,276.319489 465.290985,282.256653 462.838745,288.215973 
	C466.158356,288.821289 468.804962,289.182770 470.395782,291.743561 
	C471.955139,294.253632 467.656555,296.620728 470.748260,299.458008 
	C472.948059,297.555908 475.421295,297.130951 478.354034,298.328888 
	C482.138672,299.874786 478.835022,304.090332 481.585449,306.078796 
	C483.327271,305.010376 484.193420,302.436798 486.511261,302.972595 
	C488.321747,303.391174 489.995758,304.399994 491.575348,305.079773 
	C492.785492,303.812073 492.695312,302.588409 492.622498,301.459961 
	C492.061340,292.764069 495.336395,285.951294 502.396637,280.847443 
	C508.138184,276.696899 511.642883,271.272278 512.853821,264.067596 
	C513.481567,260.332703 513.705872,257.303131 510.958466,254.432556 
	C506.245667,249.508408 501.632751,244.488663 496.503479,238.978455 
M381.881714,308.437317 
	C380.868164,305.916901 378.578308,302.878052 383.583466,302.244629 
	C385.338898,302.022461 387.344452,302.998932 388.260071,300.714752 
	C389.286255,298.154816 386.895813,297.275818 385.602600,295.918518 
	C381.662811,291.783386 381.560181,288.892517 385.483978,285.343964 
	C386.762024,284.188141 388.352356,283.229370 387.191681,281.290283 
	C386.198822,279.631470 384.505524,279.524658 382.762024,280.086517 
	C380.769135,280.728821 378.918976,280.860291 377.184784,279.259735 
	C372.662811,275.086243 367.869629,271.192932 364.026917,266.331635 
	C363.239990,265.336060 362.009674,264.411285 363.069183,262.990814 
	C364.759094,261.934296 365.693420,264.514984 367.406494,263.625763 
	C369.238831,256.379456 370.611023,248.922119 374.281921,241.390549 
	C361.689301,247.893738 350.659088,254.538986 344.013123,266.878723 
	C337.909912,278.210785 337.706696,277.836365 344.958099,288.279449 
	C351.238953,297.324707 360.425751,304.881622 360.731873,317.638458 
	C363.497986,314.263611 366.106506,313.780457 369.091217,317.181732 
	C371.046356,319.409760 373.161407,318.124207 373.393982,315.804108 
	C373.838440,311.371002 375.812653,311.109375 379.461670,312.234192 
	C381.725098,312.931915 382.876404,311.479950 381.881714,308.437317 
M115.275139,113.872498 
	C110.443680,116.181343 105.612221,118.490189 100.123070,121.113327 
	C101.615860,121.922417 102.167931,122.470062 102.744064,122.496674 
	C111.648262,122.907906 120.164314,125.318863 128.596268,127.848068 
	C141.140564,131.610794 154.144852,134.577988 163.806702,144.497894 
	C167.522202,148.312607 171.438217,151.961685 174.863159,156.023285 
	C181.061172,163.373398 189.644180,162.548721 198.866577,164.397980 
	C190.848297,152.553299 184.880447,141.098221 175.720200,131.934662 
	C169.009613,125.221642 162.070450,118.737785 155.292526,112.091232 
	C148.517181,105.447212 138.675629,103.509644 130.114319,107.267891 
	C125.387581,109.342834 120.675369,111.450874 115.275139,113.872498 
M187.136353,131.419495 
	C182.859879,130.363159 178.498505,129.497696 175.157501,126.042847 
	C186.281662,138.279770 195.054199,151.956589 203.560455,166.286835 
	C198.765823,168.166275 194.787659,166.821991 190.157410,167.017685 
	C191.468948,171.141434 193.371933,174.899567 192.515884,179.053543 
	C191.881866,182.130234 193.035767,183.841614 196.341171,183.935486 
	C199.892639,184.036316 201.677490,187.014725 201.605911,189.492844 
	C201.386978,197.073395 199.001373,204.076965 193.115021,209.379288 
	C190.804306,211.460754 188.366730,213.401352 185.664490,215.677750 
	C196.014297,224.098419 206.500595,229.575531 216.731659,235.429703 
	C224.043976,239.613785 224.030182,239.358521 228.697800,232.329453 
	C231.392075,228.272110 230.834641,225.681824 226.987274,222.733521 
	C221.314041,218.386047 216.125198,213.411407 210.641159,208.809814 
	C208.192673,206.755310 207.428314,204.623260 208.373169,201.379456 
	C210.164505,195.229706 210.221191,188.931381 208.803467,182.622421 
	C208.223541,180.041733 207.228516,177.180283 207.807281,174.780563 
	C209.879898,166.186707 207.405426,158.015869 204.780685,150.379318 
	C201.983093,142.239822 197.433777,134.344528 187.136353,131.419495 
M489.283081,325.157227 
	C488.579681,322.421509 487.772919,319.707367 487.196960,316.945068 
	C486.320404,312.741211 484.095581,311.406281 480.009552,312.997131 
	C474.430023,315.169464 468.722748,315.303833 462.894501,313.918304 
	C455.299988,312.112854 447.662811,310.486969 440.042786,308.789062 
	C438.324615,308.406219 436.565094,307.527863 434.853760,309.157928 
	C435.217743,313.538452 437.885437,317.309906 438.412201,321.539948 
	C439.769318,332.437653 445.649567,338.647430 456.084625,342.093811 
	C465.224548,345.112488 473.907990,349.396454 483.791718,349.708527 
	C486.831543,349.804535 488.249908,348.878082 488.780914,345.683411 
	C489.872467,339.115723 491.417084,332.625122 489.283081,325.157227 
M449.800415,357.732086 
	C446.258392,356.036194 443.601196,352.677246 438.938873,351.946106 
	C434.898865,362.310272 430.151154,372.300842 424.269440,382.085846 
	C432.224030,388.736389 440.700958,394.050659 449.708374,398.198303 
	C455.022308,400.645172 460.685913,400.104858 465.951904,395.796539 
	C472.780975,390.209442 477.890991,383.589722 481.663452,375.466309 
	C470.730316,370.770721 460.367065,364.804962 449.800415,357.732086 
M91.753433,435.187500 
	C84.519081,447.458649 72.762711,452.590820 58.433765,454.593506 
	C61.012653,456.687622 62.752850,456.420105 64.349869,456.773743 
	C68.047394,457.592529 72.067764,457.370850 75.309296,459.749786 
	C77.948654,461.686707 80.659279,461.835083 83.803543,461.132172 
	C90.825104,459.562500 97.943733,458.431976 104.842781,461.693939 
	C108.956360,463.638916 111.119324,461.885590 112.306244,458.071686 
	C112.847610,456.332153 113.227654,454.541687 113.662727,452.769897 
	C116.576118,440.905457 115.982628,428.666260 117.507072,416.652374 
	C117.907021,413.500519 116.470673,411.149048 113.838623,409.550140 
	C110.559967,407.558380 109.289291,404.491089 108.742485,400.886017 
	C108.420029,398.760071 107.883171,396.652557 107.266579,394.589386 
	C106.682144,392.633820 105.943794,390.431213 103.175705,391.838989 
	C100.774887,393.060059 98.966866,394.669006 101.020195,397.719177 
	C102.317413,399.646210 103.217339,401.847748 104.569542,403.729218 
	C107.388794,407.651855 106.939781,411.318970 104.416603,415.191650 
	C100.241158,421.600281 96.245323,428.125977 91.753433,435.187500 
M241.779526,317.656891 
	C235.249893,321.295807 228.730301,324.952850 222.185043,328.563446 
	C219.982513,329.778473 217.679840,330.929871 215.083420,329.928345 
	C212.107269,328.780334 210.351974,330.300049 208.830475,332.515472 
	C199.456467,346.164825 191.179153,360.304596 189.287262,377.209961 
	C189.068161,379.167816 187.283234,381.240173 189.991028,383.912354 
	C211.332474,367.190796 228.335754,345.538513 251.581375,330.585449 
	C248.309982,328.153198 244.348602,329.017914 243.415222,325.342834 
	C242.655457,322.351349 245.345398,319.761597 244.811386,316.806061 
	C243.708694,316.336578 243.056290,316.949493 241.779526,317.656891 
M511.538177,249.989502 
	C513.348999,252.912582 517.423706,254.976486 517.010498,258.598846 
	C516.231445,265.428497 515.927185,272.667145 510.551300,278.046234 
	C509.015137,279.583313 508.317719,281.113922 509.000824,283.387756 
	C509.712738,285.757355 510.102814,288.261597 510.320526,290.734528 
	C510.917480,297.514191 514.847412,302.090149 520.854919,303.922821 
	C526.416016,305.619263 531.584473,302.916656 535.689819,298.919769 
	C542.463623,292.324890 540.313477,284.610779 537.153137,277.601959 
	C530.934082,263.809540 523.963562,250.355408 517.267578,236.779251 
	C516.415466,235.051514 515.533936,233.201996 513.016968,233.084778 
	C511.880951,236.045822 511.124664,238.996078 509.673920,241.552155 
	C507.837372,244.787903 508.459686,247.191864 511.538177,249.989502 
M516.346802,361.556122 
	C515.748413,369.348328 521.546265,377.377136 529.402344,379.014526 
	C537.034485,355.645782 546.041077,332.515381 539.978943,306.546417 
	C535.016541,310.256989 529.556091,311.706879 524.191833,313.324921 
	C521.307556,314.194855 520.109009,315.688202 520.510376,318.765228 
	C520.938599,322.048096 521.495239,325.447571 521.087769,328.681732 
	C519.738708,339.388214 517.980225,350.043060 516.346802,361.556122 
M511.145111,420.811890 
	C511.310760,420.826599 511.497925,420.895477 511.636017,420.840698 
	C511.771240,420.787079 511.971466,420.576691 511.947540,420.487732 
	C509.494995,411.367157 507.025696,402.251068 504.552246,393.136139 
	C504.029266,391.208832 502.853424,389.295074 504.281372,386.796478 
	C507.147614,389.214661 506.548981,392.964294 508.645264,395.095856 
	C513.921997,387.159027 516.890076,379.437592 509.187561,371.208527 
	C506.801788,368.659698 504.867523,367.933167 501.932617,369.470795 
	C496.783722,372.168427 491.656311,374.908173 486.479492,377.551178 
	C482.101898,379.786102 480.186401,383.612030 480.432190,388.176239 
	C480.886505,396.611847 481.821899,405.022583 482.608917,413.438782 
	C482.944427,417.026733 484.790009,417.682861 488.386444,417.365814 
	C495.968109,416.697479 503.687225,416.423401 511.145111,420.811890 
M430.382721,336.894104 
	C428.241913,328.260162 426.101074,319.626221 423.840942,310.511108 
	C412.295563,313.927612 400.945496,316.268250 389.244263,316.499939 
	C387.025085,316.543854 386.043640,317.926025 386.779480,320.303375 
	C390.029907,330.805054 393.119934,341.357025 399.926331,350.315857 
	C401.218170,352.016205 402.520020,352.684235 404.592499,352.023499 
	C412.526672,349.494080 420.379791,346.789978 427.759277,342.843689 
	C429.951996,341.671051 431.122070,340.200409 430.382721,336.894104 
M254.435074,275.917297 
	C256.595947,276.489929 258.751007,277.455902 261.121185,276.298035 
	C256.350677,268.732086 198.508148,239.433838 188.055298,239.247086 
	C196.136963,250.231674 206.833267,258.257996 217.218430,266.470428 
	C214.899368,269.565765 211.666748,267.191437 209.876389,269.352448 
	C210.824631,274.152557 215.014816,277.814880 214.972473,282.485474 
	C213.256744,284.318390 212.114731,282.082062 210.850616,283.164368 
	C219.281387,287.087036 228.516190,286.489105 237.997147,288.836945 
	C235.278152,284.817535 230.119095,284.933929 228.746429,279.856293 
	C236.258499,280.327423 242.034012,284.774353 249.547592,285.299255 
	C248.212952,283.020172 247.189911,281.346649 246.241043,279.632080 
	C245.309769,277.949310 243.280502,276.821899 243.596207,274.268738 
	C247.178375,273.104553 250.268860,275.501892 254.435074,275.917297 
M251.477066,67.100906 
	C246.524384,69.972221 247.379791,74.793648 248.133621,79.010147 
	C249.022095,83.979820 253.285690,85.102982 259.422943,82.832329 
	C271.197357,78.476051 283.158905,75.216888 295.936768,76.641624 
	C301.951721,77.312302 307.521393,79.640236 313.340179,81.031059 
	C315.021912,81.433029 316.608521,82.055977 317.595612,79.954887 
	C319.169586,76.604568 315.469696,65.595673 312.076813,64.512589 
	C291.852509,58.056534 271.730743,55.747974 251.477066,67.100906 
M318.193390,380.259796 
	C320.356506,382.588013 322.028503,385.251526 323.754639,387.912933 
	C326.731934,392.503479 329.084290,398.274780 334.016144,400.573059 
	C344.430084,405.426056 350.891785,414.423065 358.739166,421.962433 
	C363.707977,426.736298 370.641571,427.840363 377.450012,423.880280 
	C376.039642,422.589630 374.759064,421.370331 373.428314,420.208405 
	C368.525940,415.928040 363.668915,411.599457 360.461639,405.807373 
	C357.852905,401.096191 354.684418,396.814270 350.451538,393.482819 
	C343.255707,387.819397 338.182892,380.551453 333.479309,372.805084 
	C329.364594,366.028473 321.831177,363.611176 314.606506,359.127197 
	C314.435608,366.974182 312.704346,373.791595 318.193390,380.259796 
M113.576607,171.924057 
	C111.090790,175.459671 106.451012,175.622040 103.502556,178.225754 
	C99.953537,181.359833 96.361145,184.010529 91.700264,185.307892 
	C88.383629,186.231079 85.637932,188.442307 85.439217,192.211609 
	C85.238373,196.021332 87.968796,198.095276 90.988785,199.798935 
	C92.994652,200.930511 95.242577,201.054428 97.305077,200.723312 
	C107.990120,199.007889 118.822891,199.567352 129.524445,198.434601 
	C135.081329,197.846405 141.569794,197.756836 141.998093,189.546143 
	C142.037476,188.791092 143.591537,188.936584 143.465988,187.518402 
	C140.783539,186.663803 138.851166,184.745438 137.339417,182.232773 
	C132.083908,173.497635 124.344147,170.060471 113.576607,171.924057 
M441.294220,288.518463 
	C442.258423,288.264069 443.221191,288.004272 444.187042,287.756256 
	C449.173126,286.475739 454.180634,285.272125 459.137634,283.887695 
	C461.521851,283.221771 463.218262,281.655518 463.591461,279.041016 
	C463.927124,276.689484 462.225128,275.924347 460.513428,275.107178 
	C458.464661,274.129059 458.310974,272.354065 458.826965,270.424316 
	C459.681976,267.227112 461.290741,264.686981 466.547302,264.306488 
	C460.505768,259.898560 460.234497,253.836166 457.421661,248.840866 
	C451.551819,252.886505 445.583954,255.826080 439.369293,258.158813 
	C435.786499,259.503632 432.123291,260.544403 428.881134,262.680389 
	C427.206421,263.783752 426.086060,264.983734 426.666962,267.170532 
	C428.500458,274.072754 430.309601,280.981598 432.098053,287.895660 
	C432.604858,289.855011 433.609406,290.755859 435.713287,290.052490 
	C437.286896,289.526428 438.909027,289.145538 441.294220,288.518463 
M398.976166,290.444153 
	C403.616425,290.847229 408.260162,291.214447 412.895599,291.666809 
	C415.679565,291.938477 416.722290,290.855743 416.743500,287.990936 
	C416.790619,281.617828 415.102692,275.460541 414.726532,269.168152 
	C414.534546,265.956299 413.121216,264.305084 410.237244,263.444489 
	C404.337738,261.684113 398.420044,259.972504 392.579712,258.030701 
	C389.294922,256.938599 388.239471,258.201141 388.343842,261.260223 
	C388.491333,265.581970 388.920471,269.928772 386.853638,274.001251 
	C386.374756,274.944824 386.356232,275.931213 387.278473,276.711700 
	C391.985565,280.695160 392.832520,284.720245 386.168427,289.133026 
	C390.927216,289.594604 394.500977,289.941223 398.976166,290.444153 
M391.706970,387.278595 
	C393.644104,384.113251 394.224426,379.957092 397.901062,377.701324 
	C399.648682,380.293945 396.679047,381.934265 398.022980,384.226562 
	C402.956085,386.368347 408.004669,389.072357 414.130035,390.465790 
	C413.666565,389.425079 413.558350,388.918213 413.265656,388.563477 
	C406.408569,380.251678 398.794403,372.499207 394.242462,362.497131 
	C393.468201,360.795868 391.920074,360.458862 390.122009,360.281158 
	C385.152740,359.790039 381.449280,361.486511 378.714264,365.726440 
	C376.737915,368.790222 374.524170,371.725159 372.176910,374.516266 
	C370.772858,376.185760 370.347870,377.530701 371.870239,379.269714 
	C375.965118,383.947388 378.538788,389.503632 380.963745,395.147003 
	C381.940552,397.420227 383.568878,398.838135 386.227417,398.928925 
	C388.008423,395.134308 389.694092,391.542755 391.706970,387.278595 
M505.887054,447.646545 
	C494.107605,449.546326 482.352325,449.071167 470.571594,447.526123 
	C468.378418,447.238495 465.074036,446.098938 464.522278,449.881104 
	C464.051056,453.111176 463.537170,456.632477 468.145294,457.923920 
	C485.364716,462.749817 502.481964,464.192810 519.502075,457.073853 
	C522.818542,455.686676 526.049622,453.932312 524.498474,449.856873 
	C523.073914,446.113861 519.721802,444.597748 515.528809,445.623657 
	C512.623840,446.334381 509.671936,446.852692 505.887054,447.646545 
M433.439240,92.259125 
	C428.622253,89.345680 427.015167,89.758102 423.580109,94.114960 
	C421.631866,96.586006 423.294067,98.481392 424.065125,100.553535 
	C425.001190,103.069283 426.851837,102.385223 428.600403,101.657791 
	C430.423187,100.899475 432.132843,100.885567 433.802582,102.043854 
	C446.498505,110.851021 458.854675,119.901367 460.292236,137.203125 
	C460.532349,140.092789 462.967529,142.766235 461.210236,145.851151 
	C460.060547,147.869446 460.730652,149.549347 462.449127,150.566544 
	C465.030548,152.094528 468.010071,153.330795 470.904877,151.979935 
	C472.867767,151.063950 473.980743,148.932343 473.381714,146.487137 
	C472.788818,144.066910 472.251099,141.616455 471.421539,139.274033 
	C468.893005,132.134003 468.401672,124.265396 463.147339,118.098892 
	C454.678528,108.159775 445.384491,99.231918 433.439240,92.259125 
M508.573395,365.449432 
	C509.396545,365.934662 510.219696,366.419861 511.240051,367.021332 
	C511.584229,366.064056 511.926575,365.475952 511.999298,364.856201 
	C513.809448,349.429779 518.348755,334.300720 516.787476,318.501190 
	C516.139099,311.938995 516.730591,311.400543 523.424255,309.881317 
	C526.717224,309.133942 529.778381,307.971222 532.484009,305.950531 
	C530.484985,306.235413 528.611694,306.822418 526.745056,307.429993 
	C524.556519,308.142365 522.307251,309.598114 520.044128,308.297546 
	C514.062256,304.859955 508.564301,301.046112 507.428345,293.308105 
	C506.964386,290.147583 506.992676,286.680420 504.736023,283.598328 
	C502.073914,285.781647 497.276550,287.499969 500.354675,291.446442 
	C505.755096,298.370392 506.080841,306.124939 506.074829,314.069214 
	C506.063263,329.351959 507.797546,344.619232 506.449219,359.914154 
	C506.287079,361.753387 506.730530,363.559479 508.573395,365.449432 
M60.666111,178.338470 
	C54.450027,178.743637 48.233948,179.148804 41.371681,179.596069 
	C44.224483,183.778793 45.935905,187.777771 50.780872,188.873535 
	C59.039551,190.741333 67.228134,192.927948 75.815399,192.647415 
	C80.046844,192.509186 86.920525,186.109116 86.742065,181.817719 
	C86.513107,176.312241 86.878510,170.909744 88.367165,164.996765 
	C84.830261,167.584000 81.607994,169.629974 78.751747,172.099319 
	C73.781281,176.396545 68.478409,179.432846 60.666111,178.338470 
M358.759766,358.854858 
	C364.117493,358.202911 367.928009,360.706116 370.954407,365.510437 
	C375.056854,360.152283 378.734772,354.963989 385.602905,353.162476 
	C382.262939,344.501160 379.398926,336.204895 374.978912,327.355743 
	C373.864716,331.241333 373.079712,333.928040 372.327057,336.623749 
	C371.921082,338.077820 371.468536,340.221741 369.932343,340.007080 
	C364.988007,339.316101 364.942688,343.264374 363.606842,346.030701 
	C362.282654,348.772949 360.897186,351.246765 357.259369,348.979095 
	C356.033325,348.214874 354.914642,348.625946 354.228058,349.695221 
	C352.460419,352.448212 349.643524,354.496552 348.639343,357.730743 
	C351.304138,362.338928 354.778229,359.399414 358.759766,358.854858 
M224.482498,395.013397 
	C226.509613,393.484009 228.277451,391.271149 231.452408,392.198517 
	C230.906448,395.171844 227.983109,395.944611 226.827850,398.152100 
	C224.550858,402.503052 226.936325,406.463196 231.663834,406.036865 
	C230.206680,398.339905 233.071304,393.684540 239.878387,392.892700 
	C239.714920,394.772278 238.253311,395.794922 237.213959,397.007294 
	C235.057236,399.523041 234.179779,402.064209 236.063141,405.166138 
	C237.116013,406.900269 237.875916,408.727753 240.389709,408.695251 
	C244.047043,408.647949 246.182373,406.531281 247.732971,403.558777 
	C248.112686,402.830841 248.601517,402.010376 248.578461,401.246399 
	C248.439529,396.645966 251.216293,393.528748 253.852676,390.281708 
	C255.271072,388.534790 257.289276,387.123962 257.588593,384.422424 
	C251.141495,383.113098 244.557419,383.422119 238.310410,381.517029 
	C236.481659,380.959351 234.999969,381.807190 234.297699,383.606018 
	C232.319763,388.672363 228.594254,391.408325 223.412720,392.953491 
	C218.235428,394.497375 217.708450,398.486145 222.137527,403.115540 
	C221.947800,400.120422 221.648468,397.411133 224.482498,395.013397 
M489.736908,214.804459 
	C480.171692,207.588425 470.760345,200.041534 458.617828,199.985489 
	C460.336182,206.370026 465.568176,209.436722 471.598083,211.748657 
	C473.834656,212.606216 474.237152,215.005051 474.336884,217.242874 
	C474.509125,221.106964 476.225342,223.404846 480.342163,223.706009 
	C483.926636,223.968246 487.015686,225.548508 489.709106,227.921188 
	C493.015381,230.833725 496.342804,233.722305 499.696045,236.651794 
	C505.177734,228.786453 504.814178,226.032806 497.924408,220.847763 
	C495.404266,218.951187 492.842834,217.109497 489.736908,214.804459 
M397.079895,152.377182 
	C400.593140,150.757736 397.634033,149.440140 396.701813,148.481247 
	C391.155914,142.776627 385.537354,137.137848 379.788666,131.638535 
	C378.344238,130.256760 376.980774,127.066490 374.208618,129.636795 
	C371.769684,131.898132 367.415131,133.551102 370.524567,138.345688 
	C371.505524,139.858261 371.874420,141.764450 372.837585,143.292480 
	C375.668976,147.784409 376.589539,152.088501 371.480896,156.319321 
	C373.703979,157.010498 375.333618,157.335022 376.802917,158.009064 
	C380.783051,159.834976 384.118042,159.934021 387.384735,156.208359 
	C389.577026,153.708054 393.084381,152.959213 397.079895,152.377182 
M365.535583,401.873566 
	C364.258209,394.496887 358.071106,391.608673 352.631958,388.308105 
	C349.372955,386.330475 347.609528,384.007416 347.916992,380.331818 
	C348.485016,373.541412 345.766998,368.563049 340.292389,364.641815 
	C336.519806,361.939667 333.058624,358.785309 329.577057,355.699036 
	C325.757111,352.312775 322.246735,352.782166 318.664795,355.930084 
	C319.422028,358.364471 321.434784,359.113068 323.103394,360.020752 
	C330.431915,364.007294 336.409912,369.213867 339.992310,376.966461 
	C341.021088,379.192902 342.487976,381.388397 344.254517,383.073364 
	C352.868042,391.289246 361.422638,399.532867 368.306915,409.471313 
	C367.464081,407.175568 366.621246,404.879852 365.535583,401.873566 
M478.585968,444.864166 
	C492.114990,446.635071 505.351837,444.502197 518.578857,441.984528 
	C521.147644,441.495605 522.116089,440.284943 521.405212,437.902344 
	C520.852478,436.049683 519.377686,434.952881 517.588867,436.108246 
	C510.398621,440.752197 502.812866,437.972717 495.315979,437.656738 
	C488.356323,437.363403 481.368408,437.271362 474.414001,437.574249 
	C471.950317,437.681549 468.519714,438.602051 468.636597,441.897217 
	C468.745026,444.953247 471.954651,444.423676 474.165131,444.669220 
	C475.317566,444.797211 476.486847,444.774109 478.585968,444.864166 
M499.683716,420.855103 
	C496.209961,420.689941 492.736115,420.392365 489.262512,420.395599 
	C485.526367,420.399048 482.529999,422.242493 480.349365,425.133362 
	C478.211975,427.966827 479.269012,430.525726 482.602753,430.606384 
	C490.895294,430.807129 499.193329,430.790070 507.489288,430.833740 
	C510.196808,430.847992 512.278381,429.862762 513.180847,427.046906 
	C509.644836,423.463226 505.793152,420.781128 499.683716,420.855103 
M202.052841,121.999802 
	C199.663177,121.334152 197.263077,120.703590 194.886124,119.995255 
	C190.480988,118.682518 185.800034,118.252007 182.097504,114.928749 
	C175.355606,108.877487 167.494675,103.868034 164.182388,94.772308 
	C164.122284,94.607269 163.622299,94.602425 163.214676,94.492355 
	C161.581726,96.927422 162.581635,99.111786 163.649033,101.431190 
	C168.006317,110.899422 175.900940,117.056816 184.042374,122.799812 
	C190.003830,127.005051 197.649490,126.480759 202.052841,121.999802 
M190.090973,105.470352 
	C184.464661,100.597481 178.386551,96.860786 170.459976,97.549568 
	C172.960281,106.232239 187.867676,116.457771 198.532196,116.697906 
	C197.340820,111.947456 195.156525,108.120033 190.090973,105.470352 
M227.075287,75.067131 
	C227.379639,73.159607 228.251251,72.227951 230.255936,71.302658 
	C233.901138,69.620171 237.948181,67.629448 236.696747,62.053841 
	C235.648636,57.384106 231.399918,57.001202 228.220734,55.277981 
	C225.014236,53.539944 223.141190,54.611942 222.245483,58.415710 
	C220.846481,64.356621 225.021530,69.447472 224.348999,75.239784 
	C224.268158,75.936012 225.647232,77.988129 227.075287,75.067131 
M443.269531,122.332542 
	C445.439453,130.801987 452.483398,135.815903 457.124603,142.552780 
	C455.731567,130.291519 453.889252,118.346077 440.822998,112.443314 
	C441.605713,115.509354 442.376465,118.528435 443.269531,122.332542 
M465.912537,97.655716 
	C464.080566,97.119064 462.057220,96.760086 460.993774,98.677345 
	C459.585358,101.216621 458.181183,102.266800 455.618988,100.143150 
	C454.837646,99.495567 454.020477,100.017403 453.457520,100.683456 
	C452.631348,101.660889 453.050934,102.620224 453.840912,103.308395 
	C458.202881,107.108284 461.047852,112.381897 466.359344,116.229439 
	C466.512512,111.886490 473.356934,115.748299 472.649658,110.098473 
	C472.181793,106.360855 468.481415,109.117416 467.183807,106.942993 
	C466.915344,104.100235 469.295929,100.877319 465.912537,97.655716 
M342.075317,61.698868 
	C342.075317,58.759178 342.075317,55.819489 342.075317,52.356010 
	C336.438080,53.103672 331.690948,54.781811 327.678284,58.119461 
	C325.447906,59.974636 325.929504,62.433495 327.760834,64.245171 
	C329.247742,65.716164 331.160889,66.852821 333.056488,67.791344 
	C335.818756,69.158936 341.620209,65.679901 342.075317,61.698868 
M376.826141,411.614624 
	C377.894745,412.065094 378.955048,412.536713 380.034515,412.959473 
	C380.935150,413.312195 381.858276,413.607635 382.771423,413.928467 
	C378.426514,409.999603 373.630402,406.636566 372.257446,400.811371 
	C369.496521,389.097260 357.687805,385.535980 351.801361,376.505280 
	C349.871857,382.805725 353.407074,385.794006 357.742584,388.034149 
	C363.230316,390.869659 366.722290,395.051910 368.419861,401.021545 
	C369.647430,405.338440 371.276978,409.623199 376.826141,411.614624 
M134.244919,203.650253 
	C128.599152,205.458359 124.926559,209.975693 120.952621,213.862320 
	C114.558174,220.116272 107.927925,223.255203 99.424683,218.226395 
	C99.346298,218.180054 99.146339,218.339279 99.003143,218.402542 
	C100.879929,223.274994 106.541862,225.316681 112.001884,222.347870 
	C120.285202,217.843918 128.302322,212.844086 136.354309,207.926819 
	C137.789154,207.050583 139.481766,205.908875 138.896057,203.667114 
	C137.561661,202.756607 136.249008,203.389877 134.244919,203.650253 
M393.040161,156.245804 
	C391.287079,157.396469 389.326477,158.381241 389.067078,160.842056 
	C401.851044,164.849854 407.604797,164.021255 413.658661,157.236053 
	C406.994110,155.620071 400.570312,152.974899 393.040161,156.245804 
M118.397011,101.528076 
	C119.299774,101.890205 120.300385,102.712563 121.090439,102.544579 
	C131.036743,100.429810 140.840073,97.891388 149.155533,91.575905 
	C150.584320,90.490753 150.918091,89.192543 149.988220,87.670853 
	C148.955902,85.981514 147.660461,86.939568 146.529449,87.514343 
	C145.350143,88.113678 144.181320,88.795738 143.155075,89.623978 
	C136.764816,94.781242 129.586868,97.895638 121.323196,98.440460 
	C119.817932,98.539696 117.740021,98.390549 118.397011,101.528076 
M202.331329,129.794144 
	C199.938080,127.881653 198.578644,129.840347 196.280792,131.271347 
	C204.264130,139.841644 209.716064,149.334671 211.011398,160.883530 
	C214.540848,152.224167 211.771011,144.822296 207.318756,137.755402 
	C205.762634,135.285416 202.720917,133.778946 202.331329,129.794144 
M178.417648,358.024170 
	C176.914734,359.929657 174.686493,361.274445 173.693008,364.180023 
	C183.566986,362.654144 181.140839,372.510651 185.460495,376.679047 
	C186.364059,373.132416 187.160492,369.935944 187.993958,366.749146 
	C189.808960,359.809357 186.143585,356.097107 178.417648,358.024170 
M398.793732,307.196747 
	C404.604584,306.478210 410.006165,304.513062 415.214386,301.722290 
	C409.726013,301.354523 404.283630,301.362823 398.841309,301.351532 
	C395.413300,301.344421 391.931152,300.700653 389.771332,304.699036 
	C388.798065,306.500854 386.462555,306.592224 384.179626,305.554260 
	C385.197357,308.889893 387.398102,308.844543 389.587097,308.594666 
	C392.387421,308.274994 395.170685,307.806091 398.793732,307.196747 
M203.755402,114.253662 
	C202.227020,110.625229 201.881943,106.186981 198.242691,103.896194 
	C191.347214,99.555725 184.275558,95.486259 177.177872,91.479980 
	C174.082367,89.732735 170.780243,89.542130 167.268311,92.166710 
	C184.551849,94.001228 196.931931,102.724327 204.295151,118.685982 
	C204.593033,118.313400 204.890915,117.940826 205.188797,117.568253 
	C204.793732,116.671127 204.398666,115.774010 203.755402,114.253662 
M121.104736,202.292282 
	C116.564194,203.780060 114.213646,207.709961 111.447380,211.118637 
	C110.487259,212.301743 110.370125,213.966751 111.547417,215.246841 
	C113.064110,216.895981 114.351944,215.448654 115.378769,214.587280 
	C120.015335,210.697693 124.932266,207.091675 128.747070,202.220551 
	C126.363411,202.220551 124.123039,202.220551 121.104736,202.292282 
M464.238861,292.405731 
	C457.746063,294.271179 451.253265,296.136627 444.760468,298.002075 
	C444.756439,298.311920 444.752380,298.621796 444.748352,298.931671 
	C451.484283,299.542450 458.220215,300.153229 464.824280,300.752045 
	C465.532074,298.383759 465.951752,296.622772 466.589264,294.944519 
	C467.256348,293.188293 466.722656,292.416046 464.238861,292.405731 
M214.568588,178.812454 
	C214.809021,190.150299 216.865463,193.765350 224.245377,195.537704 
	C222.020203,191.840515 221.119965,187.805115 219.980927,183.832245 
	C219.246124,181.269348 218.670334,178.241241 214.568588,178.812454 
M209.399628,128.033112 
	C208.285904,126.987183 208.340927,124.745911 205.873108,124.763504 
	C204.674667,127.195290 204.825272,129.650040 206.495529,131.667191 
	C209.668060,135.498581 212.912033,139.235474 214.120300,144.713028 
	C215.647293,142.553787 215.889206,140.722473 215.605484,138.964294 
	C214.941727,134.850845 211.879776,131.995636 209.399628,128.033112 
M516.120422,388.893066 
	C515.530457,391.657104 513.426880,394.090912 514.052368,397.882446 
	C516.796814,396.265869 519.207092,395.133179 521.279358,393.556305 
	C524.184204,391.345886 522.056396,389.500610 520.404907,387.842682 
	C518.952820,386.384857 517.309143,384.511169 516.120422,388.893066 
M506.043884,241.808914 
	C510.537292,234.614944 510.793182,230.908798 506.745972,228.152527 
	C505.696899,231.514450 504.632172,234.794342 503.658447,238.101059 
	C503.140930,239.858612 503.271606,241.434708 506.043884,241.808914 
M151.386276,104.826736 
	C153.596588,106.403839 155.806885,107.980949 158.224701,109.706116 
	C157.679459,105.328789 156.730682,101.597427 151.869797,100.619225 
	C149.349564,100.112053 146.823776,99.554390 144.601379,102.549026 
	C146.982513,103.355354 148.830597,103.981178 151.386276,104.826736 
M99.431000,125.570900 
	C97.119858,125.572418 97.163292,127.241234 97.448311,128.717545 
	C97.938011,131.254181 98.687431,133.740692 99.578346,137.229202 
	C101.688004,133.215790 103.333366,130.085648 105.125900,126.675537 
	C103.031815,126.256584 101.579475,125.966019 99.431000,125.570900 
M475.552002,360.707733 
	C478.725372,361.559021 481.891907,362.514557 485.292053,361.256622 
	C479.744537,358.112396 473.229889,358.298767 467.600525,355.587585 
	C469.373871,358.345673 472.046143,359.539459 475.552002,360.707733 
M516.876160,374.689941 
	C516.490967,374.390167 516.090515,373.995300 515.760254,374.728577 
	C515.705750,374.849640 515.811096,375.046173 515.850952,375.205719 
	C517.207703,380.637848 521.166077,383.887054 525.402649,387.091553 
	C527.272400,385.164398 526.289917,383.933105 525.021606,382.700256 
	C522.420410,380.171844 519.842957,377.619141 516.876160,374.689941 
M108.121246,217.302444 
	C105.889175,213.093811 107.813263,209.501984 110.147255,205.873047 
	C107.033875,208.784348 103.496964,211.015884 101.912521,214.826553 
	C103.640244,216.710907 105.704071,216.832886 108.121246,217.302444 
M375.277130,417.437042 
	C376.225342,418.355377 377.161835,419.286224 378.124084,420.189636 
	C380.708862,422.616394 382.039886,421.411316 383.143982,418.181152 
	C379.818848,416.627716 376.638611,415.141968 373.276825,413.571411 
	C373.090881,415.437561 374.085449,416.138519 375.277130,417.437042 
M352.559723,244.336670 
	C359.086578,240.828415 365.942169,237.875168 371.635986,232.948105 
	C365.180450,236.415512 358.014374,238.617325 352.559723,244.336670 
M364.962952,370.724762 
	C363.663086,367.817810 360.593750,366.324738 359.672913,363.364563 
	C358.053131,363.719330 356.949677,363.998779 356.237274,365.168396 
	C357.119873,367.257477 359.062286,368.310150 360.711639,369.633881 
	C363.063721,371.521576 363.078857,371.502716 364.962952,370.724762 
M390.055725,216.884552 
	C387.770782,218.264755 385.613464,219.731369 385.938721,223.871490 
	C388.949310,220.952499 393.176208,220.220551 393.764801,214.862961 
	C392.270782,215.624191 391.418732,216.058319 390.055725,216.884552 
M157.498184,94.846489 
	C155.085709,93.674950 152.679474,92.572395 150.367935,95.746216 
	C152.381119,96.616234 154.208389,97.736801 156.187469,98.181038 
	C158.927628,98.796104 159.447998,97.480736 157.498184,94.846489 
M95.644600,149.809250 
	C93.848999,152.501068 93.019279,155.455139 92.720459,159.720703 
	C95.553413,156.266632 97.746887,153.799179 95.644600,149.809250 
M514.788208,433.486450 
	C514.913452,433.193695 515.057068,432.906158 515.143738,432.602386 
	C515.156494,432.557617 514.820557,432.332733 514.779053,432.364624 
	C511.913513,434.563293 508.479828,434.420746 505.122467,434.674255 
	C508.402649,436.344025 511.385681,435.167664 514.788208,433.486450 
z"/>
<path fill="#000000" opacity="1.000000" stroke="none" 
	d="
M258.879211,121.569794 
	C259.292175,125.856262 259.150238,129.814957 257.483734,133.593430 
	C256.241455,136.410095 254.961777,139.314102 251.161285,138.869476 
	C247.207809,138.406967 244.980042,135.599228 243.979675,132.111847 
	C242.600662,127.304413 246.498657,118.967415 250.779282,116.393974 
	C252.810089,115.173096 254.576126,115.632408 256.681580,116.852982 
	C257.591614,118.421509 258.205048,119.864395 258.879211,121.569794 
z"/>
<path fill="#000000" opacity="1.000000" stroke="none" 
	d="
M267.616089,199.508301 
	C272.014496,201.744919 276.028320,202.564148 280.235474,199.823898 
	C282.961700,198.048218 283.623993,195.756241 283.623413,192.635254 
	C283.622803,189.531158 281.423798,189.236511 279.551819,188.417770 
	C274.606049,186.254623 270.334717,183.096481 266.249268,179.647964 
	C264.969025,178.567307 263.506470,177.418976 263.969116,175.517654 
	C264.491425,173.371262 266.507904,173.590103 268.102051,173.598755 
	C273.087036,173.625763 278.132294,173.116425 283.025787,174.342331 
	C286.324402,175.168671 289.259857,173.674088 292.378662,173.433990 
	C294.524139,173.268814 296.654724,172.716095 298.793304,172.708496 
	C301.172791,172.700073 304.481293,171.594757 305.483429,174.478378 
	C306.390930,177.089737 303.494720,178.842422 301.745636,180.455002 
	C298.579407,183.374161 295.504883,186.554169 291.262329,187.970993 
	C287.207520,189.325104 285.854706,192.240707 286.620758,196.134003 
	C287.188049,199.017349 292.755096,202.006531 295.965454,201.354309 
	C298.988495,200.740158 301.490082,199.340378 303.381805,196.704178 
	C304.663208,194.918442 305.605927,192.504303 309.319489,192.074615 
	C307.741394,197.220123 305.358795,201.128052 300.757721,203.050232 
	C298.147339,204.140762 296.242340,205.634918 294.586517,207.816483 
	C290.943970,212.615601 281.321899,214.693726 276.715942,210.728119 
	C271.798584,206.494431 266.351410,203.053955 261.409149,198.924911 
	C260.218781,197.930389 258.513123,197.017700 259.206909,194.570740 
	C262.967926,194.320755 264.383545,198.201553 267.616089,199.508301 
M290.481781,178.328018 
	C283.407623,177.792450 276.380951,176.342896 268.445557,176.577866 
	C271.390503,180.329132 274.368835,176.123642 276.829987,178.149139 
	C279.099640,180.017014 281.022247,181.838440 280.266479,185.053452 
	C284.461578,186.614975 288.217072,187.532486 291.911316,183.702057 
	C290.386993,183.576324 288.661194,184.618484 288.101135,182.951187 
	C287.467957,181.066025 288.982697,179.927734 290.481781,178.328018 
M288.594330,202.804581 
	C285.433014,199.454636 282.812134,201.455307 279.004547,204.553696 
	C284.097992,202.696075 287.745331,204.371872 291.629608,204.473343 
	C290.790070,204.028275 289.950531,203.583206 288.594330,202.804581 
M285.725891,209.288666 
	C286.671600,208.900818 288.132782,209.573181 288.596039,207.745544 
	C285.694489,206.677597 282.930756,205.784195 280.000214,208.178421 
	C281.772278,209.415588 283.401520,209.473190 285.725891,209.288666 
z"/>
<path fill="#000000" opacity="1.000000" stroke="none" 
	d="
M414.154053,374.023071 
	C406.129608,364.465546 406.119690,364.450653 416.171997,357.756378 
	C420.723175,354.725525 425.327698,351.774902 429.896576,348.770416 
	C431.018311,348.032715 432.204254,347.054504 433.475708,348.119385 
	C434.994202,349.391144 434.044739,350.864807 433.295135,352.133118 
	C428.901886,359.566437 423.740021,366.470032 418.551727,373.352631 
	C417.459381,374.801727 416.208069,375.805634 414.154053,374.023071 
M415.092499,362.547516 
	C410.507904,365.393921 413.082642,367.353180 415.988403,369.648407 
	C420.477814,365.840424 422.984070,360.899841 425.387634,355.666229 
	C422.144012,357.821747 418.900391,359.977264 415.092499,362.547516 
z"/>
<path fill="#000000" opacity="1.000000" stroke="none" 
	d="
M417.766693,132.467529 
	C414.607178,129.550140 412.951141,120.306015 414.638245,117.136124 
	C416.627502,113.398460 422.129578,110.764442 427.007050,111.897812 
	C430.642090,112.742485 435.675293,112.061806 436.789124,117.145203 
	C437.987885,122.616325 439.151917,128.302734 433.834198,132.779877 
	C432.142700,134.204010 430.597290,134.913223 428.443176,134.483307 
	C425.029968,133.802109 421.596741,133.221390 417.766693,132.467529 
M431.460541,122.808922 
	C432.586334,123.738838 432.091522,125.766594 433.806824,126.343414 
	C434.730103,121.992027 433.892487,117.606178 431.930328,116.403450 
	C428.275848,114.163399 422.127808,114.411758 419.238434,116.862762 
	C416.926392,118.824020 416.851044,120.996170 418.569885,123.773117 
	C422.342896,119.706764 426.476257,118.952515 431.460541,122.808922 
z"/>
<path fill="#000000" opacity="1.000000" stroke="none" 
	d="
M452.877594,166.974579 
	C451.282440,163.194901 449.138641,160.012253 446.048309,158.123154 
	C438.385010,153.438614 439.370178,146.422409 439.934967,139.309387 
	C450.586487,138.769241 459.017883,154.997528 455.588989,168.924973 
	C454.003845,169.537628 453.620514,168.245804 452.877594,166.974579 
M451.591156,151.167419 
	C449.349060,148.810211 447.450287,146.058975 444.325134,144.612030 
	C442.126038,150.926300 443.872528,153.935532 452.528442,158.657959 
	C452.524933,156.242920 453.100128,153.987823 451.591156,151.167419 
z"/>
<path fill="#000000" opacity="1.000000" stroke="none" 
	d="
M388.726868,114.716141 
	C389.202454,116.795769 389.970001,119.043022 387.107025,119.057114 
	C385.323273,119.065887 384.869171,117.116783 385.111145,115.630424 
	C385.457428,113.503433 386.670715,112.752251 388.726868,114.716141 
z"/>
<path fill="#000000" opacity="1.000000" stroke="none" 
	d="
M152.917801,178.633850 
	C148.932388,177.640533 148.693619,175.376694 149.926636,172.435471 
	C151.707260,168.188065 154.572571,164.742859 158.140137,161.966461 
	C161.989990,158.970383 167.811539,161.975906 169.411011,167.604355 
	C170.968643,173.085571 167.390457,178.625839 161.710281,179.245300 
	C158.921112,179.549469 156.070648,179.678925 152.917801,178.633850 
z"/>
<path fill="#000000" opacity="1.000000" stroke="none" 
	d="
M112.944702,134.922302 
	C114.868324,136.370895 116.319565,138.584503 113.317764,138.693161 
	C110.105080,138.809464 107.323212,139.510666 104.502403,141.442429 
	C104.397560,135.391052 107.242981,133.315216 112.944702,134.922302 
z"/>
<path fill="#000000" opacity="1.000000" stroke="none" 
	d="
M320.744019,103.325897 
	C321.086548,104.631340 321.360687,105.595116 321.438965,106.574532 
	C321.471039,106.976143 321.080231,107.411545 320.464966,108.714104 
	C316.539062,103.582680 312.010345,99.790024 305.846497,97.937599 
	C311.143188,93.690620 316.980011,95.959236 320.744019,103.325897 
z"/>
<path fill="#000000" opacity="1.000000" stroke="none" 
	d="
M255.173126,98.181656 
	C256.436859,98.970444 257.254181,100.328903 256.109741,100.624016 
	C251.157730,101.901024 247.470184,105.011353 244.077744,109.068909 
	C241.717407,102.029785 247.031235,97.094887 255.173126,98.181656 
z"/>
<path fill="#000000" opacity="1.000000" stroke="none" 
	d="
M96.666168,193.723618 
	C102.280083,196.538177 108.120148,193.390732 113.604614,195.331436 
	C108.790138,201.055389 94.583923,198.821869 91.316277,191.980072 
	C93.385841,191.301544 94.690758,192.959534 96.666168,193.723618 
z"/>
<path fill="#000000" opacity="1.000000" stroke="none" 
	d="
M125.717987,179.596069 
	C122.368980,179.811615 122.300156,177.839172 122.781113,175.704498 
	C123.026108,174.617081 124.079903,173.928894 125.074532,174.559402 
	C126.954613,175.751251 128.000122,177.350677 125.717987,179.596069 
z"/>
</svg>